<svg width="1439" height="1505" viewBox="0 0 1439 1505" fill="none" xmlns="http://www.w3.org/2000/svg">
<g filter="url(#filter0_i)">
<path fill-rule="evenodd" clip-rule="evenodd" d="M1440.8 38.3069C1521.93 156.487 1539.86 304.066 1534.13 447.27C1529.23 569.379 1455.5 669.215 1410.97 783.004C1359.79 913.785 1376.49 1094.08 1254.06 1162.88C1132.02 1231.47 985.803 1130.01 849.331 1098.65C724.553 1069.98 600.591 1054.61 491.449 987.662C354.063 903.386 176.687 825.065 145.559 666.941C114.433 508.824 232.268 355.22 344.122 239.268C437.184 142.796 594.124 161.147 705.471 86.5143C842.834 -5.55623 896.299 -230.64 1061.34 -241.459C1222.05 -251.995 1349.63 -94.5033 1440.8 38.3069Z" fill="#0F289A" fill-opacity="0.1"/>
</g>
<path opacity="0.15" d="M940.067 587.756L750.631 697.004C748.227 698.533 744.95 699.189 741.891 699.189C738.613 699.189 735.554 698.533 733.151 697.004L543.933 587.756C541.529 586.445 540.218 584.478 540.218 582.73C540.218 581.419 540.874 580.108 542.185 578.797C542.622 578.36 543.277 577.923 543.933 577.486L733.369 468.238C738.176 465.398 746.042 465.398 751.067 468.238L940.285 577.486C945.092 580.327 945.092 584.915 940.067 587.756Z" fill="#6B99D1"/>
<path d="M940.067 572.024L750.631 681.272C748.227 682.802 744.95 683.457 741.891 683.457C738.613 683.457 735.554 682.802 733.151 681.491L543.714 572.242C541.311 570.713 540 568.965 540 567.217C540 565.25 541.311 563.502 543.714 562.191L569.279 547.334L732.932 452.943C737.739 450.103 745.605 450.103 750.631 452.943L939.849 562.191C945.092 564.595 945.092 569.183 940.067 572.024Z" fill="#DCEEFF"/>
<path d="M742.109 646.531V683.239C738.832 683.239 735.773 682.583 733.369 681.272L543.933 572.024C541.529 570.494 540.218 568.746 540.218 566.998V535.098C540.218 533.787 540.874 532.476 542.185 531.165L569.497 546.897L742.109 646.531Z" fill="#A5CBFA"/>
<path d="M742.109 646.531V683.239C745.387 683.239 748.446 682.583 750.849 681.272L940.286 572.024C942.689 570.494 944 568.746 944 566.998V535.098C944 533.787 943.344 532.476 942.034 531.165L914.721 546.897L742.109 646.531Z" fill="#C8E2FF"/>
<path d="M940.067 540.123L750.631 649.372C748.227 650.901 744.95 651.557 741.891 651.557C738.613 651.557 735.554 650.901 733.151 649.372L543.933 540.123C541.529 538.812 540.218 536.846 540.218 535.098C540.218 533.787 540.874 532.476 542.185 531.165C542.622 530.728 543.277 530.291 543.933 529.854L733.369 420.606C738.176 417.765 746.042 417.765 751.067 420.606L940.285 529.854C945.092 532.913 945.092 537.501 940.067 540.123Z" fill="#DCEEFF"/>
<path d="M742.109 420.824C744.95 420.824 747.79 421.48 749.757 422.572L938.974 531.82C940.504 532.694 941.596 534.005 941.596 535.098C941.596 536.19 940.722 537.283 938.974 538.375L749.538 647.624C747.572 648.716 744.731 649.372 741.891 649.372C738.832 649.372 736.21 648.716 734.243 647.624L545.025 538.375C543.277 537.501 542.403 536.409 542.403 535.098C542.403 534.442 542.84 533.568 543.714 532.913C544.151 532.476 544.588 532.258 545.025 532.039L734.462 422.791C736.21 421.48 739.05 420.824 742.109 420.824ZM742.109 418.639C738.832 418.639 735.773 419.295 733.369 420.824L543.933 530.073C543.277 530.51 542.622 530.947 542.185 531.384C540.874 532.476 540.218 533.787 540.218 535.316C540.218 537.283 541.529 539.031 543.933 540.342L733.151 649.59C735.554 651.12 738.832 651.775 741.891 651.775C745.168 651.775 748.227 651.12 750.631 649.59L940.067 540.342C944.874 537.501 944.874 532.913 940.067 530.073L750.849 420.824C748.446 419.513 745.168 418.639 742.109 418.639Z" fill="white"/>
<path d="M736.21 443.111L582.388 531.82C579.111 533.787 579.111 536.846 582.388 538.594L736.21 627.303C739.487 629.27 744.731 629.27 748.009 627.303L901.83 538.594C905.108 536.627 905.108 533.787 901.83 531.82L748.009 443.111C744.731 441.144 739.487 441.144 736.21 443.111Z" fill="#344593"/>
<path d="M901.83 531.82L748.009 443.111C746.479 442.237 744.294 441.8 742.109 441.8V447.699L900.738 539.249L901.83 538.594C904.889 536.627 904.889 533.568 901.83 531.82Z" fill="#1E3779"/>
<path d="M742.109 441.582C739.924 441.582 737.958 442.018 736.21 442.892L582.388 531.602C579.111 533.569 579.111 536.627 582.388 538.375L583.481 539.031L742.109 447.481V441.582Z" fill="#031F60"/>
<path d="M743.202 494.458L788.649 468.238C789.305 467.801 789.305 467.146 788.649 466.709L743.202 440.489C742.546 440.052 741.454 440.052 740.58 440.489L695.133 466.709C694.477 467.146 694.477 467.801 695.133 468.238L740.58 494.458C741.454 494.895 742.546 494.895 743.202 494.458Z" stroke="white" stroke-miterlimit="10" stroke-linecap="round"/>
<path d="M742.109 477.196V582.512C744.731 582.512 747.572 581.856 749.538 580.764L846.988 524.391C851.139 521.988 854.416 516.307 854.416 511.5V477.196H742.109Z" fill="#6CFFE6"/>
<path d="M629.584 477.196V511.5C629.584 516.307 632.861 521.988 637.012 524.391L734.68 580.764C736.647 581.856 739.487 582.512 742.109 582.512V477.196H629.584Z" fill="#41E5C9"/>
<path d="M734.462 540.342L632.643 481.566C628.491 479.163 628.491 475.23 632.643 473.045L734.68 414.051C738.832 411.647 745.387 411.647 749.538 414.051L851.357 472.826C855.509 475.23 855.509 479.163 851.357 481.348L749.538 540.123C745.387 542.745 738.613 542.745 734.462 540.342Z" fill="#ABFFEF"/>
<path d="M653.618 474.356L737.084 426.068C739.924 424.539 744.294 424.539 747.135 426.068L830.6 474.356C833.441 475.885 833.441 478.507 830.6 480.037L747.135 528.324C744.294 529.854 739.924 529.854 737.084 528.324L653.618 480.037C650.996 478.507 650.996 475.885 653.618 474.356Z" stroke="white" stroke-miterlimit="10" stroke-linecap="round"/>
<path d="M744.513 438.304L810.28 475.885C811.591 476.759 811.591 478.07 810.28 478.726L744.513 516.307C743.202 517.181 741.017 517.181 739.487 516.307L674.375 478.726C673.064 477.852 673.064 476.541 674.375 475.885L739.487 438.304C740.798 437.43 743.202 437.43 744.513 438.304Z" stroke="white" stroke-miterlimit="10" stroke-linecap="round"/>
<path d="M655.585 514.341C655.585 512.156 654.055 509.315 652.089 508.223C650.996 507.567 650.122 507.567 649.467 508.004L635.046 516.307C632.205 518.055 629.802 522.207 629.802 525.484V545.367C629.802 546.023 630.239 546.897 631.331 547.334C633.298 548.426 636.357 548.426 638.323 547.334C639.197 546.678 639.853 546.023 639.853 545.367V525.921C639.853 525.484 640.071 525.047 640.508 524.829L654.711 516.744C655.148 516.089 655.585 515.433 655.585 514.341Z" fill="url(#paint0_linear)"/>
<path d="M677.216 526.795C677.216 524.61 675.686 521.77 673.72 520.677C672.627 520.022 671.753 520.022 671.098 520.459L656.677 528.762C653.837 530.509 651.433 534.661 651.433 537.938V557.822C651.433 558.477 651.87 559.351 652.963 559.788C654.929 560.881 657.988 560.881 659.955 559.788C660.829 559.133 661.484 558.477 661.484 557.822V538.375C661.484 537.938 661.703 537.501 662.14 537.283L676.342 529.198C676.779 528.762 677.216 527.888 677.216 526.795Z" fill="url(#paint1_linear)"/>
<path d="M698.628 539.468C698.628 537.283 697.099 534.442 695.132 533.35C694.04 532.694 693.166 532.694 692.51 533.131L678.09 541.434C675.249 543.182 672.846 547.334 672.846 550.611V570.494C672.846 571.15 673.283 572.024 674.375 572.461C676.342 573.553 679.401 573.553 681.367 572.461C682.241 571.805 682.897 571.15 682.897 570.494V551.048C682.897 550.611 683.115 550.174 683.552 549.956L697.754 541.871C698.41 541.216 698.628 540.56 698.628 539.468Z" fill="url(#paint2_linear)"/>
<path d="M720.26 551.922C720.26 549.737 718.73 546.897 716.764 545.804C715.671 545.149 714.797 545.149 714.142 545.586L699.721 553.889C696.88 555.637 694.477 559.788 694.477 563.065V582.949C694.477 583.604 694.914 584.478 696.006 584.915C697.973 586.008 701.032 586.008 702.998 584.915C703.872 584.26 704.528 583.604 704.528 582.949V563.502C704.528 563.065 704.746 562.628 705.183 562.41L719.386 554.326C720.041 553.889 720.26 553.015 720.26 551.922Z" fill="url(#paint3_linear)"/>
<path d="M828.634 514.341C828.634 512.156 830.163 509.315 832.13 508.223C833.222 507.567 834.096 507.567 834.752 508.004L849.172 516.307C852.013 518.055 854.416 522.207 854.416 525.484V545.367C854.416 546.023 853.979 546.897 852.887 547.334C850.92 548.426 847.861 548.426 845.895 547.334C845.021 546.678 844.366 546.023 844.366 545.367V525.921C844.366 525.484 844.147 525.047 843.71 524.829L829.508 516.744C829.071 516.089 828.634 515.433 828.634 514.341Z" fill="url(#paint4_linear)"/>
<path d="M807.003 526.795C807.003 524.61 808.532 521.77 810.499 520.677C811.591 520.022 812.465 520.022 813.121 520.459L827.541 528.762C830.382 530.509 832.785 534.661 832.785 537.938V557.822C832.785 558.477 832.348 559.351 831.256 559.788C829.289 560.881 826.231 560.881 824.264 559.788C823.39 559.133 822.735 558.477 822.735 557.822V538.375C822.735 537.938 822.516 537.501 822.079 537.283L807.877 529.198C807.44 528.762 807.003 527.888 807.003 526.795Z" fill="url(#paint5_linear)"/>
<path d="M785.372 539.468C785.372 537.283 786.901 534.442 788.868 533.35C789.96 532.694 790.834 532.694 791.489 533.131L805.91 541.434C808.751 543.182 811.154 547.334 811.154 550.611V570.494C811.154 571.15 810.717 572.024 809.625 572.461C807.658 573.553 804.599 573.553 802.633 572.461C801.759 571.805 801.103 571.15 801.103 570.494V551.048C801.103 550.611 800.885 550.174 800.448 549.956L786.246 541.871C785.809 541.216 785.372 540.56 785.372 539.468Z" fill="url(#paint6_linear)"/>
<path d="M763.74 551.922C763.74 549.737 765.27 546.897 767.236 545.804C768.329 545.149 769.203 545.149 769.858 545.586L784.279 553.889C787.12 555.637 789.523 559.788 789.523 563.065V582.949C789.523 583.604 789.086 584.478 787.994 584.915C786.027 586.008 782.968 586.008 781.002 584.915C780.128 584.26 779.472 583.604 779.472 582.949V563.502C779.472 563.065 779.254 562.628 778.817 562.41L764.614 554.326C764.177 553.889 763.74 553.015 763.74 551.922Z" fill="url(#paint7_linear)"/>
<path d="M831.695 211.723C851.359 261.103 827.543 317.038 778.163 336.922C747.792 349.157 714.799 344.569 689.235 327.963C673.285 317.475 660.393 302.399 652.965 283.39C633.3 234.01 657.116 177.856 706.496 158.192C725.505 150.544 745.389 149.452 763.961 153.822C793.676 160.376 819.459 181.134 831.695 211.723Z" fill="#B5DEFF"/>
<path d="M730.748 165.183C726.378 165.183 720.697 166.713 724.848 169.335C729 171.738 731.622 172.175 731.622 175.234C731.622 178.512 729.437 181.789 730.529 184.193C731.622 186.596 733.37 189.218 734.899 188.344C736.647 187.47 741.236 182.445 743.857 182.663C746.479 182.882 755.438 183.319 756.749 180.478C758.06 177.638 759.371 177.856 761.556 174.579C763.741 171.301 763.522 166.931 760.9 166.931C758.278 166.931 758.06 168.024 753.69 167.805C749.32 167.587 747.353 164.528 742.984 165.402C738.614 166.057 734.025 165.183 730.748 165.183Z" fill="#3A52AA"/>
<path d="M714.36 166.494C709.335 169.116 698.847 173.268 694.04 171.738C691.637 171.083 688.796 169.99 685.737 169.553C667.165 183.1 653.837 202.983 648.593 225.707C649.904 228.11 651.215 230.514 652.963 232.48C656.677 236.85 660.61 237.506 665.636 238.38C670.443 239.254 668.913 242.094 671.317 244.935C673.72 247.775 674.594 249.523 677.434 251.052C680.056 252.582 676.56 255.422 675.468 258.481C674.375 261.54 674.157 263.288 676.342 269.625C678.527 275.961 685.082 281.205 686.83 283.608C688.796 286.012 685.519 288.852 686.393 294.096C687.267 299.34 687.048 312.887 691.855 320.534C696.662 328.182 699.721 327.308 699.284 322.064C698.847 316.82 697.318 312.013 700.158 308.08C703.217 304.147 709.116 305.24 711.301 298.029C713.268 291.037 714.579 291.256 718.075 288.852C721.352 286.449 719.823 284.264 722.882 278.802C725.941 273.339 726.815 268.095 722.226 265.91C717.638 263.725 714.797 263.944 710.864 258.481C706.931 253.237 701.032 247.994 695.351 244.935C689.67 241.876 680.93 245.59 677.216 244.498C673.72 243.405 671.317 236.632 671.754 234.01C671.972 231.388 669.35 230.732 666.728 231.388C664.106 232.043 662.795 230.295 662.14 227.018C661.484 223.522 666.728 219.37 671.098 218.933C675.468 218.496 677.653 220.681 678.527 226.144C679.401 231.825 683.115 234.447 687.048 235.539C690.981 236.632 688.578 232.48 685.737 229.64C682.897 226.799 682.678 224.177 684.863 218.06C687.048 211.942 692.292 212.379 696.225 206.479C700.158 200.798 700.814 204.95 704.747 205.605C708.679 206.261 708.024 204.076 709.553 200.361C711.083 196.865 716.108 199.924 720.041 196.865C724.193 194.025 715.671 189.436 716.108 185.504C716.764 181.571 720.697 181.789 718.512 175.89C716.327 169.99 719.386 169.772 720.915 167.587C722.226 165.839 719.386 163.654 714.36 166.494ZM708.461 180.697C707.15 183.537 706.057 183.1 703.873 186.159C701.688 189.436 698.41 191.184 696.225 191.403C694.04 191.621 690.544 187.907 690.326 185.504C690.107 183.1 693.603 182.445 697.318 182.008C701.251 181.571 704.528 179.823 708.024 176.982C711.083 175.016 709.772 177.856 708.461 180.697Z" fill="#3A52AA"/>
<path d="M838.248 240.128V240.346C836.719 241.002 835.189 242.094 834.534 244.061C832.349 249.523 831.912 247.12 826.886 250.615C821.861 254.33 823.609 257.17 824.046 260.885C824.264 264.599 818.365 268.751 815.524 270.062C812.684 271.373 811.373 279.675 812.247 283.827C813.121 287.76 808.314 289.508 805.474 293.222C802.415 296.937 800.885 303.055 798.919 306.114C796.952 309.173 793.456 310.921 789.96 310.265C786.464 309.61 783.187 303.929 781.22 298.685C779.254 293.659 778.598 287.978 779.691 282.516C780.783 277.054 780.346 277.709 779.035 269.188C777.725 260.666 771.607 258.044 768.329 257.17C765.052 256.296 759.589 258.263 756.53 256.515C753.69 254.767 752.379 252.363 750.412 244.279C748.446 236.195 752.379 234.447 755.656 230.077C758.715 225.707 764.833 221.118 770.514 219.589C775.977 218.06 779.909 219.589 783.187 221.118C786.464 222.866 788.212 226.581 790.616 226.799C793.019 227.018 794.986 225.707 797.608 226.362C800.011 226.799 801.541 228.11 803.944 227.673C806.348 227.236 804.818 224.614 804.381 223.085C803.944 221.555 801.978 221.992 799.137 221.992C796.297 221.992 795.641 221.118 794.549 219.37C793.456 217.404 791.927 219.152 790.616 218.278C789.305 217.404 789.523 220.9 789.305 222.211C789.086 223.522 788.212 221.118 788.212 221.118C788.212 221.118 787.12 222.866 786.464 222.211C786.027 221.337 787.12 219.37 786.901 217.186C786.683 215.219 783.842 215.656 781.876 213.908C780.128 212.379 777.506 212.16 774.884 213.034C772.262 213.908 771.825 213.253 770.733 215.438C769.64 217.623 764.178 219.152 762.43 218.933C760.682 218.715 761.993 215.001 763.522 211.942C765.052 208.883 768.111 209.757 770.077 206.698C772.044 203.42 769.422 202.983 767.674 202.546C765.926 202.109 765.27 200.361 767.237 196.21C769.203 192.277 771.607 193.369 772.481 195.117C773.573 197.084 775.758 197.958 778.161 197.958C780.565 197.958 779.909 196.21 779.909 192.932C779.909 189.436 781.439 187.689 784.498 186.378C787.557 185.067 792.801 182.882 794.986 181.134C796.952 179.167 800.667 180.478 802.415 182.445C804.381 184.411 808.533 185.285 812.902 185.941C814.213 186.159 815.087 185.722 815.961 184.848C828.416 199.924 836.719 218.933 838.248 240.128Z" fill="#3A52AA"/>
<path d="M820.331 287.541C817.928 287.104 818.146 287.978 816.835 289.726C815.524 291.474 813.558 293.659 813.776 295.626C814.213 297.592 814.213 299.996 815.961 298.466C817.491 296.937 817.054 295.407 819.239 294.315C821.642 293.222 823.827 288.197 820.331 287.541Z" fill="#3A52AA"/>
<path opacity="0.4" d="M767.455 162.124C706.057 144.426 694.695 186.159 727.251 212.597C759.807 239.035 815.524 247.557 822.953 230.295C830.382 212.816 812.902 175.234 767.455 162.124Z" fill="white"/>
<path opacity="0.15" d="M716.108 295.626C668.476 256.515 670.005 180.697 711.738 156.006C709.99 156.662 708.242 157.317 706.494 157.973C657.114 177.638 633.08 233.791 652.963 283.171C660.61 302.181 673.501 317.257 689.233 327.745C714.579 344.569 747.572 348.939 778.161 336.703C803.07 326.652 821.642 307.425 831.256 284.482C817.709 303.273 763.74 334.737 716.108 295.626Z" fill="#344593"/>
<path opacity="0.3" d="M752.597 87.3986C749.538 89.3651 745.824 90.0206 741.891 90.0206H741.672C741.672 90.0206 741.672 90.0206 741.891 90.0206V628.833C744.294 628.833 746.698 628.177 748.883 626.648L899.645 539.686C902.486 538.157 903.797 536.846 903.797 534.879V0L752.597 87.3986Z" fill="url(#paint8_linear)"/>
<path opacity="0.5" d="M741.891 90.0206C741.017 90.0206 740.143 90.0206 739.269 90.0206C739.269 90.0206 739.269 90.0206 739.05 90.0206C738.176 90.0206 737.302 89.8021 736.428 89.5836C735.991 89.3651 735.336 89.3651 734.899 89.1466C734.68 89.1466 734.243 88.9281 733.807 88.9281C732.933 88.7096 732.059 88.2726 731.403 87.8356L579.985 0V534.661C579.985 536.409 581.077 537.72 582.825 538.812L734.899 626.648C737.302 628.177 739.487 628.833 741.672 628.833H741.891V90.0206Z" fill="url(#paint9_linear)"/>
<path opacity="0.15" d="M1033.27 684.883L1086.43 715.791C1088.12 716.81 1090.65 716.81 1092.34 715.791L1196.65 655.674C1198.33 654.825 1198.33 653.296 1196.65 652.277L1143.14 621.2C1141.46 620.181 1138.92 620.181 1137.24 621.2L1033.27 681.487C1031.75 682.336 1031.75 683.864 1033.27 684.883Z" fill="#6B99D1"/>
<path d="M1029.73 580.952V670.278C1029.73 673.165 1031.75 676.562 1034.11 677.92L1084.92 707.469C1086.1 708.149 1087.62 708.488 1089.3 708.488V638.352L1029.73 580.952Z" fill="#A5CBFA"/>
<path d="M1089.47 708.658C1090.99 708.658 1092.51 708.318 1093.69 707.639L1178.42 658.391C1180.78 657.032 1182.81 653.636 1182.81 650.749V591.991L1089.3 638.352V708.658H1089.47Z" fill="#C8E2FF"/>
<path d="M1031.92 576.027L1119.18 525.42C1121.54 524.062 1125.08 524.571 1126.94 526.609L1181.79 586.726C1183.65 588.764 1183.31 591.651 1180.78 593.009L1093.52 643.786C1091.16 645.145 1087.62 644.635 1085.76 642.597L1030.91 582.481C1029.05 580.273 1029.56 577.556 1031.92 576.027Z" fill="#DCEEFF"/>
<path d="M1169.13 590.292L1094.03 633.937C1094.03 633.937 1094.03 633.937 1093.86 633.937C1092.34 634.786 1089.98 634.446 1088.8 633.087L1043.4 583.16L1043.23 582.99C1042.22 581.631 1042.55 579.933 1044.07 579.084L1119.18 535.44C1119.18 535.44 1119.18 535.44 1119.35 535.44C1120.19 534.93 1121.03 534.93 1122.05 535.1C1122.89 535.27 1123.73 535.61 1124.41 536.289L1169.81 586.047C1170.99 587.575 1170.65 589.273 1169.13 590.292Z" fill="#1E3779"/>
<path d="M1043.06 582.99L1088.63 632.918C1089.98 634.446 1092.34 634.786 1094.03 633.767L1169.47 589.953L1121.54 537.308L1043.06 582.99Z" fill="#344593"/>
<path d="M1063.65 590.972C1069.05 587.745 1072.43 593.689 1077.83 590.632C1083.23 587.405 1079.85 581.631 1085.25 578.405C1090.65 575.178 1094.03 581.122 1099.43 578.065C1104.83 574.839 1101.46 569.065 1106.86 565.838C1112.26 562.611 1115.63 568.555 1121.03 565.328C1126.43 562.102 1123.06 556.328 1128.46 553.101" stroke="#6CFFE6" stroke-miterlimit="10"/>
<path d="M1072.26 601.84C1076.98 599.123 1080.36 605.067 1084.92 602.35C1089.64 599.632 1086.27 593.689 1090.82 591.141C1095.55 588.424 1098.92 594.368 1103.48 591.651C1108.21 588.934 1104.83 582.99 1109.39 580.443C1114.11 577.725 1117.49 583.669 1122.05 580.952C1126.77 578.235 1123.4 572.291 1127.95 569.574C1132.68 566.857 1136.05 572.801 1140.61 570.083" stroke="#6CFFE6" stroke-miterlimit="10"/>
<path d="M1080.86 612.879C1087.45 609.143 1090.82 614.916 1097.24 611.18C1103.82 607.444 1100.44 601.501 1106.86 597.764C1113.44 594.028 1116.81 599.802 1123.23 596.066C1129.81 592.33 1126.43 586.386 1132.85 582.65C1139.43 578.914 1142.81 584.688 1149.22 580.952" stroke="#6CFFE6" stroke-miterlimit="10"/>
<path d="M1121.88 534.93L1121.54 537.308L1043.06 582.99C1042.05 581.631 1042.38 579.933 1043.9 579.084L1119.01 535.44C1119.01 535.44 1119.01 535.44 1119.18 535.44C1120.02 534.93 1121.03 534.761 1121.88 534.93Z" fill="#031F60"/>
<path d="M1082.89 475.663L1096.22 483.474V498.928L1082.89 491.286V475.663Z" fill="#41E5C9"/>
<path d="M1096.22 483.474L1109.56 475.663V491.286L1096.22 498.928V483.474Z" fill="#6CFFE6"/>
<path d="M1109.56 475.663L1096.22 468.021L1082.89 475.663L1096.22 483.474L1109.56 475.663Z" fill="#ABFFEF"/>
<path d="M1096.22 475.663L1064.16 449.34" stroke="#344593" stroke-miterlimit="10" stroke-linecap="round"/>
<path d="M1089.64 487.38L1052.17 526.949" stroke="#344593" stroke-miterlimit="10" stroke-linecap="round"/>
<path d="M1025 521.684L1042.72 532.043V552.762L1025 542.403V521.684Z" fill="#41E5C9"/>
<path d="M1042.72 532.043L1060.44 521.684V542.403C1060.44 542.403 1042.72 553.101 1042.72 552.762C1042.72 552.422 1042.72 532.043 1042.72 532.043Z" fill="#6CFFE6"/>
<path d="M1060.61 521.684L1042.72 511.495L1025 521.684L1042.72 532.043L1060.61 521.684Z" fill="#ABFFEF"/>
<path d="M1048.12 446.283L1058.76 452.397V464.794L1048.12 458.68V446.283Z" fill="#41E5C9"/>
<path d="M1058.76 452.397L1069.39 446.114V458.68C1069.39 458.68 1058.76 465.134 1058.76 464.964C1058.76 464.624 1058.76 452.397 1058.76 452.397Z" fill="#6CFFE6"/>
<path d="M1069.56 446.283L1058.76 440L1048.12 446.283L1058.76 452.397L1069.56 446.283Z" fill="#ABFFEF"/>
<path d="M1043.23 521.345L1053.52 455.454" stroke="#344593" stroke-miterlimit="10" stroke-linecap="round"/>
<path d="M1158.67 698.299C1157.49 699.827 1154.79 700.676 1152.76 700.167C1151.41 699.827 1150.4 699.658 1149.39 699.318C1148.04 698.808 1146.01 698.808 1144.49 698.808C1142.81 698.639 1141.46 698.808 1139.77 698.639C1138.25 698.469 1136.73 697.959 1135.38 697.45C1133.52 696.601 1130.49 692.865 1132.68 691.506C1132.85 691.336 1133.02 691.336 1133.19 691.336C1139.26 690.487 1147.19 690.827 1149.22 688.449L1157.49 688.11C1157.32 688.11 1158.84 695.752 1159.01 696.261C1159.01 696.601 1159.18 696.94 1159.18 697.28C1159.18 697.62 1159.01 697.959 1158.67 698.299Z" fill="#2D2979"/>
<path d="M1153.44 650.239L1156.98 647.352C1156.98 647.352 1159.18 653.126 1159.18 655.164C1159.18 657.202 1157.66 687.94 1157.66 687.94C1157.66 687.94 1152.93 691.506 1149.39 688.279C1149.39 688.279 1146.86 651.938 1146.35 646.164L1153.44 650.239Z" fill="#6F89D1"/>
<path d="M1140.27 707.809C1138.92 709.168 1136.05 709.677 1134.37 709.168C1133.02 708.658 1132.17 708.318 1131.16 707.979C1129.81 707.469 1127.78 707.13 1126.27 706.96C1124.58 706.62 1123.23 706.62 1121.54 706.281C1120.02 705.941 1118.67 705.432 1117.32 704.582C1115.63 703.563 1112.76 699.658 1115.3 698.469C1115.46 698.299 1115.63 698.299 1115.8 698.299C1122.05 697.959 1129.81 698.978 1132 696.771L1140.27 697.11C1140.11 697.11 1140.95 704.752 1140.95 705.432C1140.95 705.771 1141.12 706.111 1140.95 706.45C1140.95 706.96 1140.61 707.469 1140.27 707.809Z" fill="#2D2979"/>
<path d="M1141.79 664.335C1141.79 666.373 1140.27 697.11 1140.27 697.11C1140.27 697.11 1135.55 699.997 1132 696.771C1132 696.771 1129.64 661.108 1128.97 655.504" fill="#7FA8E6"/>
<path opacity="0.15" d="M1136.05 716.13L1175.21 693.374C1177.57 692.016 1181.62 692.016 1183.99 693.374L1223.14 716.13C1225.51 717.489 1225.51 719.866 1223.14 721.225L1183.99 743.981C1181.62 745.34 1177.57 745.34 1175.21 743.981L1136.05 721.225C1133.52 719.866 1133.52 717.489 1136.05 716.13Z" fill="#6B99D1"/>
<path d="M1136.05 668.75L1175.21 645.994C1177.57 644.635 1181.62 644.635 1183.99 645.994L1223.14 668.75C1225.51 670.109 1225.51 672.486 1223.14 673.845L1183.99 696.601C1181.62 697.959 1177.57 697.959 1175.21 696.601L1136.05 673.845C1133.52 672.486 1133.52 670.109 1136.05 668.75Z" fill="#DCEEFF"/>
<path d="M1179.6 646.673C1180.95 646.673 1182.3 647.013 1183.14 647.522L1222.3 670.278C1222.97 670.618 1223.31 671.128 1223.31 671.297C1223.31 671.467 1222.97 671.977 1222.3 672.316L1183.14 695.072C1182.3 695.582 1180.95 695.922 1179.6 695.922C1178.25 695.922 1176.9 695.582 1176.05 695.072L1136.9 672.316C1136.22 671.977 1135.89 671.467 1135.89 671.297C1135.89 671.128 1136.22 670.618 1136.9 670.278L1176.05 647.522C1176.9 647.013 1178.25 646.673 1179.6 646.673ZM1179.6 644.975C1178.08 644.975 1176.39 645.315 1175.21 645.994L1136.05 668.75C1133.69 670.109 1133.69 672.486 1136.05 673.845L1175.21 696.601C1176.39 697.28 1178.08 697.62 1179.6 697.62C1181.12 697.62 1182.81 697.28 1183.99 696.601L1223.14 673.845C1225.51 672.486 1225.51 670.109 1223.14 668.75L1183.99 645.994C1182.81 645.315 1181.12 644.975 1179.6 644.975Z" fill="white"/>
<path d="M1134.2 711.205C1134.2 712.224 1134.87 713.074 1136.05 713.753L1175.21 736.509C1176.39 737.188 1177.74 737.528 1179.6 737.528V697.62C1177.91 697.62 1176.39 697.28 1175.21 696.601L1136.05 673.845C1135.04 673.335 1134.2 672.486 1134.2 671.297V711.205Z" fill="#A5CBFA"/>
<path d="M1225 711.205C1225 712.224 1224.32 713.074 1223.14 713.753L1183.99 736.509C1182.81 737.188 1181.46 737.528 1179.6 737.528V697.62C1181.29 697.62 1182.81 697.28 1183.99 696.601L1223.14 673.845C1224.16 673.335 1225 672.486 1225 671.297V711.205Z" fill="#C8E2FF"/>
<path d="M1157.15 638.352C1161.2 639.88 1188.71 650.239 1188.71 650.239C1188.71 650.239 1187.7 669.939 1181.79 666.712L1153.44 650.239L1146.18 646.333C1145.68 639.88 1152.76 636.654 1157.15 638.352Z" fill="#6F89D1"/>
<path d="M1128.97 655.504C1128.29 649.051 1135.38 645.994 1139.94 647.522C1143.99 649.051 1171.5 659.41 1171.5 659.41L1198.84 657.032C1199.51 667.391 1192.93 671.637 1185.34 675.033C1177.74 678.43 1170.49 678.939 1164.58 675.713L1136.22 659.24L1139.77 656.353C1139.77 656.353 1141.96 662.127 1141.96 664.165" fill="#7FA8E6"/>
<path d="M1168.97 590.123C1169.64 584.349 1173.52 579.594 1179.43 579.763C1185.84 579.763 1190.91 585.028 1190.91 591.311C1190.91 595.047 1189.05 598.274 1186.35 600.482C1186.35 600.482 1186.18 601.161 1186.01 602.01C1186.01 602.01 1186.69 605.067 1186.86 605.576C1187.19 606.256 1188.88 605.576 1191.24 605.237C1192.76 605.067 1193.27 607.954 1192.26 610.841C1191.41 613.388 1187.53 615.935 1183.82 616.615C1180.11 617.294 1174.37 614.917 1176.39 613.388C1178.42 611.86 1178.59 611.18 1178.25 609.992C1177.91 608.803 1177.24 606.765 1177.24 606.765C1175.89 607.105 1174.7 607.105 1174.2 607.105C1171.84 606.935 1170.65 606.425 1169.98 603.708C1168.46 598.614 1168.63 593.009 1168.97 590.123Z" fill="#FFA8A7"/>
<path d="M1181.79 610.161C1181.79 610.161 1179.94 610.161 1178.25 610.161V609.992C1177.91 608.803 1177.24 606.765 1177.24 606.765C1175.89 607.105 1174.7 607.105 1174.2 607.105C1173.19 606.935 1172.34 606.935 1171.84 606.595C1173.19 606.935 1175.55 605.576 1176.05 604.557C1176.56 603.538 1176.56 599.802 1176.56 599.802C1176.56 599.802 1176.73 600.482 1177.07 600.991C1177.41 601.67 1178.08 601.501 1178.08 601.501L1180.27 601.161L1186.86 599.972C1186.69 600.142 1186.52 600.312 1186.35 600.312C1186.35 600.312 1186.18 600.991 1186.01 601.84C1186.01 601.84 1186.69 604.897 1186.86 605.406C1187.03 605.746 1187.53 605.746 1188.04 605.576L1187.19 606.765L1181.79 610.161Z" fill="#F28F8F"/>
<path d="M1167.95 578.914C1171.67 580.103 1185 574.839 1187.53 582.82C1187.53 582.82 1190.23 583.839 1191.08 587.745C1191.92 591.651 1191.92 594.538 1189.73 598.614C1187.53 602.519 1186.86 604.388 1186.86 604.388C1186.86 604.388 1185.34 605.746 1182.97 606.086C1180.78 606.425 1178.42 605.576 1177.4 602.859C1176.9 601.501 1176.73 599.633 1176.73 599.633C1177.24 600.482 1178.76 599.972 1179.6 598.274C1180.27 596.746 1180.61 594.878 1179.6 593.349C1178.42 591.481 1176.05 591.991 1175.72 593.519C1175.38 594.708 1175.55 596.746 1175.55 596.746C1175.55 596.746 1174.03 596.915 1173.69 595.217C1173.52 594.028 1173.52 592.67 1173.52 591.651C1173.52 590.632 1173.35 589.613 1172.51 588.934C1171.5 587.915 1171.84 586.386 1171.84 586.386C1171.84 586.386 1168.46 586.386 1166.77 583.33C1165.08 580.103 1164.24 577.895 1167.95 578.914Z" fill="#3A2C6D"/>
<path d="M1188.21 605.576C1188.38 606.425 1187.7 607.784 1184.66 609.482C1180.61 611.69 1178.25 611.35 1178.25 611.35C1178.25 611.35 1173.35 613.898 1171.33 615.426C1168.63 617.294 1167.45 622.558 1167.11 631.729C1166.77 639.71 1166.77 652.447 1166.77 659.24C1166.77 662.297 1168.63 665.184 1171.33 666.542C1173.19 667.391 1175.55 668.071 1178.08 667.901C1184.32 667.391 1195.97 661.618 1198.5 657.202C1198.5 648.032 1197.66 642.428 1198 636.993C1198.5 627.313 1200.7 619.672 1198 611.86C1195.63 605.067 1192.93 604.727 1190.4 605.067C1189.22 605.237 1188.21 605.576 1188.21 605.576Z" fill="#F5FBFB"/>
<path d="M1186.69 604.727C1187.7 604.557 1188.04 605.067 1188.71 605.576C1188.71 605.576 1189.56 608.124 1186.18 610.331C1182.81 612.539 1177.57 611.86 1177.57 611.86L1176.39 612.539C1176.39 612.539 1176.9 608.973 1177.91 608.803C1177.91 608.803 1180.95 608.973 1183.99 607.444C1187.03 605.916 1186.69 604.727 1186.69 604.727Z" fill="#E4F2F2"/>
<path d="M1126.27 614.067C1126.94 615.426 1127.78 616.445 1128.63 618.313C1129.3 620.011 1129.64 620.69 1130.65 622.049C1131.84 623.408 1135.55 625.445 1140.95 628.163C1146.18 630.88 1150.4 630.71 1153.61 629.521C1160.36 626.974 1164.07 620.86 1168.46 617.464C1171.5 615.086 1174.54 616.105 1175.04 618.313C1175.38 620.011 1173.86 624.936 1168.63 630.031C1164.58 633.937 1157.66 638.352 1151.92 638.522C1148.21 638.692 1143.65 637.503 1140.61 636.144C1135.55 633.937 1132 631.389 1127.45 628.502C1126.27 627.653 1125.08 627.483 1122.55 626.295C1120.02 625.106 1117.49 623.068 1116.14 621.2C1114.79 619.332 1114.62 618.313 1114.96 617.973C1115.3 617.464 1115.97 617.464 1116.65 618.313C1117.32 619.162 1118.33 620.521 1120.36 621.879C1120.36 621.879 1118.67 620.181 1117.83 618.992C1116.98 617.803 1116.31 616.615 1115.97 615.766C1115.46 614.577 1116.48 613.048 1117.15 613.898C1117.83 614.747 1118.16 615.596 1119.51 617.124C1120.7 618.653 1121.88 619.502 1121.88 619.502C1121.88 619.502 1120.53 617.634 1119.68 615.935C1118.84 614.237 1118.84 613.218 1118.84 612.709C1118.84 612.199 1119.68 611.35 1120.53 612.539C1121.2 613.558 1121.71 615.086 1123.23 616.785C1124.41 617.973 1125.42 618.822 1125.42 618.483C1125.42 618.143 1124.75 617.464 1124.24 616.105C1123.9 614.747 1124.24 613.218 1125.08 613.048C1125.76 612.709 1125.59 612.709 1126.27 614.067Z" fill="#FFA8A7"/>
<path d="M1174.2 616.615C1175.21 617.634 1175.72 619.332 1175.04 621.54C1174.37 623.747 1172 627.144 1169.98 629.691C1168.63 631.389 1165.08 634.446 1165.08 634.446C1165.08 634.446 1159.85 630.88 1158.5 626.464C1158.5 626.464 1165.25 620.011 1167.11 618.313C1168.63 616.615 1171.67 614.067 1174.2 616.615Z" fill="#E4F2F2"/>
<g clip-path="url(#clip0)">
<path opacity="0.15" d="M623.664 941.567L789.373 845.619C790.203 845.12 791.531 845.12 792.195 845.619L796.014 847.947C796.844 848.445 796.844 849.111 796.014 849.609L630.306 945.558C629.476 946.057 628.147 946.057 627.483 945.558L623.664 943.396C622.834 942.897 622.834 942.066 623.664 941.567Z" fill="#6B99D1"/>
<path opacity="0.15" d="M746.368 924.439L758.157 917.621C766.127 912.965 777.086 911.968 782.731 915.127C788.376 918.287 786.384 924.772 778.414 929.262L766.625 936.079C758.655 940.736 747.696 941.733 742.051 938.574C736.572 935.414 738.398 929.095 746.368 924.439Z" fill="#6B99D1"/>
<path d="M770.444 927.266C770.444 927.266 771.108 928.43 774.429 926.934C777.75 925.603 778.746 923.774 778.746 923.774C778.746 923.774 777.916 917.122 775.757 918.785C773.765 920.615 770.444 927.266 770.444 927.266Z" fill="#291D51"/>
<path d="M778.912 903.819C778.912 907.312 778.746 909.972 780.074 911.968C781.403 913.797 781.569 915.127 781.569 915.127C781.569 915.127 777.584 915.626 775.591 918.453C773.599 921.28 773.599 923.94 771.772 924.439C769.946 924.938 766.791 922.776 766.791 922.776C766.791 922.776 768.784 922.776 769.614 920.282C770.444 917.788 772.437 912.466 772.437 910.97C772.437 909.64 772.437 904.152 772.437 904.152L778.912 903.819Z" fill="#F28F8F"/>
<path d="M778.912 912.799C777.252 912.965 774.595 914.794 773.599 916.79C772.769 918.785 771.274 921.612 770.112 922.277C768.95 922.943 766.957 921.945 765.297 921.945C763.636 921.945 762.308 922.776 762.308 923.94C762.308 923.94 767.787 926.601 769.448 927.266C771.108 928.098 772.437 928.098 773.765 924.605C775.093 921.28 775.591 919.284 776.588 921.612C777.584 923.94 778.082 929.095 778.082 929.095C778.082 929.095 779.41 929.594 780.074 928.264C780.074 928.264 780.074 925.77 780.407 923.774C780.739 921.612 782.565 919.118 782.399 916.457C782.233 914.129 780.739 912.633 778.912 912.799Z" fill="#2D2979"/>
<path d="M770.444 873.888L779.078 874.719C779.078 874.719 781.071 878.876 781.071 880.872C783.561 887.191 779.078 903.487 779.576 910.804C779.576 910.804 775.591 912.965 772.437 910.97C772.437 910.97 769.116 879.375 768.452 873.721L770.444 873.888Z" fill="#F28F8F"/>
<path d="M752.844 935.581C752.844 935.581 753.508 936.745 756.829 935.248C760.15 933.918 761.146 932.088 761.146 932.088C761.146 932.088 760.316 925.437 758.157 927.1C756.165 928.929 752.844 935.581 752.844 935.581Z" fill="#291D51"/>
<path d="M761.312 912.134C761.312 915.626 761.146 918.287 762.474 920.282C763.802 922.111 763.968 923.442 763.968 923.442C763.968 923.442 759.983 923.94 757.991 926.767C755.998 929.594 755.998 932.255 754.172 932.754C752.346 933.253 749.191 931.091 749.191 931.091C749.191 931.091 751.183 931.091 752.013 928.596C752.844 926.102 754.836 920.781 754.836 919.284C754.836 917.954 754.836 912.466 754.836 912.466L761.312 912.134Z" fill="#FFA8A7"/>
<path d="M761.312 921.113C759.651 921.28 756.995 923.109 755.999 925.104C755.168 927.1 753.674 929.927 752.512 930.592C751.349 931.257 749.357 930.259 747.696 930.259C746.036 930.259 744.708 931.091 744.708 932.255C744.708 932.255 750.187 934.915 751.847 935.581C753.508 936.412 754.836 936.412 756.165 932.92C757.493 929.594 757.991 927.599 758.987 929.927C759.983 932.255 760.482 937.41 760.482 937.41C760.482 937.41 761.81 937.909 762.474 936.578C762.474 936.578 762.474 934.084 762.806 932.088C763.138 929.927 764.965 927.432 764.799 924.772C764.633 922.444 763.304 920.947 761.312 921.113Z" fill="#2D2979"/>
<path d="M763.47 890.018C765.795 893.842 762.972 904.152 761.81 918.952C761.81 918.952 758.489 921.446 754.67 919.451C754.67 919.451 751.515 888.521 750.851 882.867" fill="#FFA8A7"/>
<path d="M798.505 819.678L637.778 912.466L632.298 915.626L625.823 911.801C624.992 911.302 624.328 910.138 624.328 909.307V775.445C624.328 774.946 624.494 774.281 624.826 773.782C625.159 773.283 625.491 772.784 625.989 772.452L789.041 678.333C789.871 677.834 791.199 677.834 791.863 678.333L798.339 682.157L798.505 819.678Z" fill="#1E3779"/>
<path d="M637.778 781.265V912.466L632.298 915.626L625.823 911.801C624.992 911.302 624.328 910.138 624.328 909.307V775.445C624.328 774.946 624.494 774.281 624.826 773.782L637.778 781.265Z" fill="#031F60"/>
<path d="M635.453 774.946L795.516 682.49C797.841 681.159 799.833 682.157 799.833 684.984V815.354C799.833 818.181 797.841 821.507 795.516 822.837L635.453 915.293C633.128 916.624 631.136 915.626 631.136 912.799V782.429C631.136 779.602 632.962 776.276 635.453 774.946Z" fill="#344593"/>
<path opacity="0.2" d="M662.518 774.946L822.581 682.49C824.905 681.159 826.898 682.157 826.898 684.984V815.354C826.898 818.181 824.905 821.507 822.581 822.837L662.518 915.293C660.193 916.624 658.201 915.626 658.201 912.799V782.429C658.201 779.602 660.027 776.276 662.518 774.946Z" fill="#E9FFFB"/>
<path d="M662.518 774.946L822.581 682.49C824.905 681.159 826.898 682.157 826.898 684.984V815.354C826.898 818.181 824.905 821.507 822.581 822.837L662.518 915.293C660.193 916.624 658.201 915.626 658.201 912.799V782.429C658.201 779.602 660.027 776.276 662.518 774.946Z" stroke="#E9FFFB" stroke-miterlimit="10"/>
<path d="M695.062 795.067L696.39 794.402C700.043 792.24 704.028 792.406 706.851 794.402C708.345 795.399 712.33 797.561 712.33 797.561L714.488 809.534C716.813 815.52 723.289 817.848 728.768 814.523H728.934C734.413 811.363 739.394 803.548 739.893 797.062L745.04 754.825C745.538 748.34 750.187 740.691 755.5 737.697C758.489 736.035 761.644 736.035 764.301 737.365C766.459 738.529 770.942 741.189 770.942 741.189L775.425 766.632C777.584 772.618 783.395 775.279 788.376 772.452C791.033 770.955 793.856 770.955 796.18 772.452C798.007 773.616 801.66 775.777 801.66 775.777L806.309 801.053L684.933 879.042L678.125 875.218L683.771 812.693C684.601 806.042 689.582 798.226 695.062 795.067Z" fill="#3FE0C5"/>
<path d="M701.869 798.892L703.198 798.226C708.677 795.067 715.152 797.062 717.311 802.882L721.296 813.359C723.621 819.345 730.096 821.673 735.575 818.347H735.741C741.221 815.188 746.202 807.372 746.7 800.887L751.847 758.65C752.844 750.668 756.995 744.515 762.308 741.522C767.621 738.363 773.765 740.857 775.923 746.843L782.233 770.456C784.391 776.443 790.203 779.103 795.184 776.276C800.165 773.449 805.479 776.11 807.139 782.429L813.282 804.878L685.099 879.042L690.744 816.518C691.243 809.867 696.224 802.051 701.869 798.892Z" fill="#6CFFE6"/>
<path d="M686.095 779.103C686.095 780.434 687.258 780.766 688.752 779.935L712.662 766.133C714.156 765.301 715.319 763.472 715.319 762.142C715.319 760.811 714.156 760.479 712.662 761.31L688.752 775.112C687.258 776.11 686.095 777.773 686.095 779.103Z" fill="#3FE0C5"/>
<path d="M686.095 788.914C686.095 790.245 687.258 790.577 688.752 789.746L712.662 775.944C714.156 775.112 715.319 773.283 715.319 771.953C715.319 770.623 714.156 770.29 712.662 771.121L688.752 784.923C687.258 785.755 686.095 787.584 686.095 788.914Z" fill="#3FE0C5"/>
<path opacity="0.15" d="M842.174 942.565L803.652 920.282C801.328 918.952 797.343 918.952 795.018 920.282L756.497 942.565C754.172 943.895 754.172 946.223 756.497 947.553L795.018 969.836C797.343 971.166 801.328 971.166 803.652 969.836L842.174 947.553C844.664 946.223 844.664 944.061 842.174 942.565Z" fill="#6B99D1"/>
<path d="M842.174 894.84L803.652 872.557C801.328 871.227 797.343 871.227 795.018 872.557L756.497 894.84C754.172 896.17 754.172 898.498 756.497 899.829L795.018 922.111C797.343 923.442 801.328 923.442 803.652 922.111L842.174 899.829C844.664 898.498 844.664 896.17 842.174 894.84Z" fill="#DCEEFF"/>
<path d="M799.335 873.222C800.663 873.222 801.992 873.555 802.822 874.054L841.343 896.337C842.007 896.669 842.34 897.168 842.34 897.334C842.34 897.501 842.007 897.999 841.343 898.332L802.822 920.615C801.992 921.113 800.663 921.446 799.335 921.446C798.007 921.446 796.678 921.113 795.848 920.615L757.327 898.332C756.663 897.999 756.331 897.501 756.331 897.334C756.331 897.168 756.663 896.669 757.327 896.337L795.848 874.054C796.678 873.389 798.007 873.222 799.335 873.222ZM799.335 871.56C797.841 871.56 796.18 871.892 795.018 872.557L756.497 894.84C754.172 896.17 754.172 898.498 756.497 899.829L795.018 922.111C796.18 922.776 797.841 923.109 799.335 923.109C800.829 923.109 802.49 922.776 803.652 922.111L842.174 899.829C844.498 898.498 844.498 896.17 842.174 894.84L803.652 872.557C802.49 871.892 800.995 871.56 799.335 871.56Z" fill="white"/>
<path d="M844 936.246C844 937.243 843.336 938.075 842.174 938.74L803.652 961.023C802.49 961.688 801.162 962.02 799.335 962.02V922.943C800.995 922.943 802.49 922.61 803.652 921.945L842.174 899.662C843.17 899.163 844 898.332 844 897.168V936.246Z" fill="#A5CBFA"/>
<path d="M754.67 936.246C754.67 937.243 755.334 938.075 756.497 938.74L795.018 961.023C796.18 961.688 797.509 962.02 799.335 962.02V922.943C797.675 922.943 796.18 922.61 795.018 921.945L756.497 899.662C755.5 899.163 754.67 898.332 754.67 897.168V936.246Z" fill="#C8E2FF"/>
<path d="M806.973 809.534C803.984 807.539 799.833 806.208 796.346 806.873C794.022 807.372 792.195 808.703 790.701 810.532C790.037 811.363 788.874 813.858 789.539 817.183C789.871 818.846 791.033 820.343 792.527 820.509C793.524 820.675 794.52 820.343 795.35 819.844C796.014 819.511 796.512 818.846 797.177 818.347C798.339 817.35 799.501 816.352 800.663 815.354C802.49 813.691 804.482 811.862 806.309 810.199C806.143 810.199 806.807 809.534 806.973 809.534Z" fill="#3A2C6D"/>
<path d="M779.244 865.739C783.229 867.236 809.463 877.546 809.463 877.546C809.463 877.546 808.301 897.002 802.49 893.842L775.591 877.546L768.451 873.555C767.787 867.236 774.761 864.077 779.244 865.739Z" fill="#F28F8F"/>
<path d="M751.017 882.867C750.353 876.548 757.493 873.389 761.976 875.052C765.961 876.548 792.693 885.86 792.693 885.86L816.437 884.53C820.588 894.341 813.448 899.163 805.811 902.489C798.173 905.815 791.033 906.314 785.222 903.154L758.323 886.858L761.81 883.865C761.81 883.865 763.636 887.856 763.636 890.018" fill="#FFA8A7"/>
<path d="M791.697 818.015C792.527 812.361 796.678 808.037 802.49 808.37C808.799 808.703 813.448 814.024 813.116 820.343C812.95 824.001 810.958 827.161 808.135 828.99C808.135 828.99 807.471 830.154 807.139 830.653C807.139 830.653 807.969 834.644 808.135 835.142C808.633 836.639 808.965 836.14 813.282 836.306C815.441 836.306 814.611 836.639 813.448 839.3C812.452 841.628 808.467 844.122 804.814 844.455C801.161 844.953 795.516 842.293 797.675 840.962C799.833 839.466 800.663 839.3 800.497 838.136C800.165 836.639 799.833 835.309 799.501 834.477C798.339 834.81 797.509 834.976 797.01 834.976C794.686 835.142 793.69 833.479 792.527 830.819C790.701 826.495 791.199 820.842 791.697 818.015Z" fill="#FFA8A7"/>
<path d="M799.501 834.477C798.339 834.81 797.509 834.976 797.01 834.976C796.512 834.976 796.014 834.976 795.516 834.81C796.014 834.644 796.844 834.311 797.675 833.48C799.501 832.149 799.169 828.99 799.003 827.327L799.667 828.99L800.829 829.988L805.313 831.152L807.139 830.985C807.305 831.983 807.803 834.644 807.969 834.976C808.467 836.473 808.799 835.974 813.116 836.14C815.275 836.14 814.445 836.473 813.282 839.133C812.618 840.63 810.958 842.127 808.799 843.124L806.973 843.789H806.807L798.173 840.464C799.999 839.3 800.829 838.967 800.663 837.969C800.331 836.639 799.833 835.309 799.501 834.477Z" fill="#F28F8F"/>
<path d="M813.781 870.396C813.947 873.555 815.607 876.548 817.433 882.701C819.426 888.854 819.758 895.838 808.633 901.491C797.509 906.979 790.203 906.148 784.723 903.321C779.078 900.494 758.157 886.692 758.157 886.692C755.666 883.366 765.131 868.899 784.225 867.569L797.675 872.89L813.781 870.396Z" fill="#7FA8E6"/>
<path d="M809.63 836.306C810.46 837.304 810.46 838.634 807.471 839.466C803.32 840.464 800.663 838.967 800.663 838.967C800.663 838.967 796.512 840.796 793.524 842.792C786.55 847.614 784.889 856.095 791.863 859.088C792.361 862.247 792.859 870.396 793.025 872.391C799.003 876.548 811.124 875.218 813.947 870.728C813.947 869.232 814.279 866.737 814.445 866.238C817.267 855.596 819.592 852.769 818.762 844.787C818.264 840.131 817.932 837.969 815.441 836.639C813.781 835.974 810.626 836.14 809.63 836.306Z" fill="#F5FBFB"/>
<path d="M809.463 829.322C812.12 826.662 812.95 824.001 813.116 820.343C813.448 814.024 808.633 808.703 802.49 808.37C798.505 808.204 795.184 810.033 793.358 813.192C793.358 813.192 793.856 814.024 794.52 814.689C794.52 814.689 794.022 816.185 795.018 817.183C795.682 817.848 796.014 818.846 795.848 819.844C795.682 820.842 795.682 822.172 795.848 823.336C796.014 824.999 797.675 825.664 797.675 825.664C797.675 825.664 797.841 822.837 798.671 821.673C799.667 820.176 801.161 820.176 802.49 821.839C803.32 822.837 803.32 825.498 802.324 826.828C800.829 828.99 799.335 827.659 799.335 827.659C799.833 828.99 799.501 830.985 801.826 831.65C804.316 832.149 806.641 831.484 807.803 830.819C808.467 830.154 809.463 829.322 809.463 829.322Z" fill="#3A2C6D"/>
<path d="M808.633 810.698C811.622 809.867 814.279 814.356 815.275 820.509C816.271 826.662 816.437 830.985 814.445 833.313C812.618 835.641 804.648 839.133 797.343 836.473C797.343 836.473 799.335 835.309 799.003 827.327C799.003 827.327 800.995 829.156 804.814 828.158C808.633 827.161 810.128 823.835 809.796 819.345C809.796 815.188 808.633 810.698 808.633 810.698Z" fill="#3A2C6D"/>
<path d="M752.346 841.628C753.01 842.958 753.84 843.956 754.504 845.951C755.168 847.614 755.334 848.279 756.497 849.61C757.659 850.94 761.312 853.102 766.459 855.928C771.606 858.589 775.757 858.589 778.912 857.591C785.72 855.263 789.373 849.277 793.856 845.951C796.844 843.623 799.833 844.787 800.331 846.949C800.663 848.612 799.169 853.434 793.856 858.257C789.871 862.081 782.897 866.072 777.086 866.238C773.433 866.238 768.95 865.074 765.961 863.578C760.98 861.25 757.493 858.755 753.176 855.928C752.013 855.097 750.851 854.931 748.527 853.6C746.036 852.436 743.545 850.441 742.217 848.445C740.889 846.45 740.889 845.619 741.055 845.286C741.387 844.787 742.051 844.953 742.715 845.785C743.379 846.616 744.376 848.113 746.202 849.277C746.202 849.277 744.708 847.614 743.877 846.45C743.047 845.286 742.383 844.122 742.051 843.291C741.553 842.127 742.549 840.63 743.379 841.461C744.044 842.293 744.376 843.124 745.704 844.621C746.866 846.117 748.028 846.949 748.028 846.949C748.028 846.949 746.7 845.12 746.036 843.457C745.206 841.794 745.206 840.796 745.372 840.297C745.372 839.798 746.202 839.133 747.032 840.131C747.198 840.963 747.53 842.459 749.191 844.288C750.353 845.452 751.349 846.284 751.349 845.951C751.349 845.619 750.685 844.953 750.353 843.457C750.021 842.127 750.519 840.63 751.183 840.464C751.847 840.297 751.681 840.297 752.346 841.628Z" fill="#FFA8A7"/>
</g>
<g clip-path="url(#clip1)">
<path opacity="0.15" d="M1044.6 979.905C1018.47 995.103 1018.47 1019.49 1044.6 1034.69C1070.73 1049.89 1113.1 1049.89 1139.4 1034.69C1165.53 1019.49 1165.53 995.103 1139.4 979.905C1113.27 964.707 1070.73 964.707 1044.6 979.905Z" fill="#6B99D1"/>
<path d="M1150.35 976.901C1147.35 973.897 1143.82 971.069 1139.23 968.418C1113.1 953.22 1070.55 953.22 1044.42 968.418C1040.01 971.069 1036.3 973.897 1033.3 976.901H1025V995.81C1025 1005.71 1031.53 1015.6 1044.6 1023.2C1070.73 1038.4 1113.1 1038.4 1139.4 1023.2C1152.47 1015.6 1159 1005.71 1159 995.81V976.901H1150.35Z" fill="url(#paint10_linear)"/>
<path d="M1044.6 951.806C1018.47 967.004 1018.47 991.392 1044.6 1006.59C1070.73 1021.79 1113.1 1021.79 1139.4 1006.59C1165.53 991.392 1165.53 967.004 1139.4 951.806C1113.27 936.784 1070.73 936.784 1044.6 951.806Z" fill="#DCEEFF"/>
<path d="M1092.09 942.263C1109.74 942.263 1126.16 946.151 1138.52 953.396C1150.53 960.465 1157.23 969.478 1157.23 979.198C1157.23 988.918 1150.53 998.108 1138.52 1005C1126.16 1012.25 1109.57 1016.13 1092.09 1016.13C1074.43 1016.13 1058.01 1012.25 1045.66 1005C1033.47 998.108 1026.77 988.918 1026.77 979.198C1026.77 969.478 1033.47 960.289 1045.48 953.396C1057.84 946.151 1074.43 942.263 1092.09 942.263ZM1092.09 940.496C1074.96 940.496 1057.84 944.207 1044.77 951.806C1018.64 967.004 1018.64 991.392 1044.77 1006.59C1057.84 1014.19 1074.96 1017.9 1092.09 1017.9C1109.21 1017.9 1126.34 1014.19 1139.4 1006.59C1165.53 991.392 1165.53 967.004 1139.4 951.806C1126.34 944.207 1109.21 940.496 1092.09 940.496Z" fill="white"/>
<path d="M1140.46 959.582C1137.99 957.108 1134.99 954.633 1131.28 952.513C1109.57 939.965 1074.43 939.965 1052.89 952.513C1049.19 954.633 1046.19 957.108 1043.71 959.582H1036.65V975.31C1036.65 983.44 1042.13 991.746 1052.89 997.931C1074.61 1010.48 1109.74 1010.48 1131.28 997.931C1142.05 991.746 1147.52 983.44 1147.52 975.31V959.582H1140.46Z" fill="url(#paint11_linear)"/>
<path d="M1052.72 938.905C1031 951.452 1031 971.776 1052.72 984.323C1074.43 996.871 1109.57 996.871 1131.11 984.323C1152.82 971.776 1152.82 951.452 1131.11 938.905C1109.57 926.358 1074.43 926.358 1052.72 938.905Z" fill="#DCEEFF"/>
<path d="M1092.09 931.129C1106.57 931.129 1120.16 934.31 1130.4 940.319C1140.29 945.974 1145.76 953.573 1145.76 961.526C1145.76 969.478 1140.29 976.901 1130.4 982.733C1120.16 988.565 1106.57 991.922 1092.09 991.922C1077.61 991.922 1064.02 988.741 1053.78 982.733C1043.89 977.078 1038.42 969.478 1038.42 961.526C1038.42 953.573 1043.89 946.151 1053.78 940.319C1063.84 934.487 1077.43 931.129 1092.09 931.129ZM1092.09 929.362C1077.96 929.362 1063.66 932.543 1052.89 938.728C1031.18 951.276 1031.18 971.599 1052.89 984.146C1063.66 990.332 1077.96 993.513 1092.09 993.513C1106.21 993.513 1120.51 990.332 1131.28 984.146C1153 971.599 1153 951.276 1131.28 938.728C1120.34 932.543 1106.21 929.362 1092.09 929.362Z" fill="white"/>
<path d="M1115.22 859.556L1121.4 824.918L1095.62 820.146" stroke="#344593" stroke-miterlimit="10"/>
<path d="M1067.37 865.211L1095.62 820.146L1115.22 859.556" stroke="#344593" stroke-miterlimit="10"/>
<path d="M1057.48 867.862C1055.9 862.384 1059.07 856.905 1064.55 855.315C1070.02 853.724 1075.49 856.905 1077.08 862.384C1078.67 867.862 1075.49 873.34 1070.02 874.931C1064.72 876.521 1059.07 873.34 1057.48 867.862Z" fill="url(#paint12_linear)"/>
<path d="M1090.32 821.737C1089.44 818.733 1091.21 815.728 1094.21 815.021C1097.21 814.138 1100.21 815.905 1100.92 818.909C1101.8 821.914 1100.03 824.918 1097.03 825.625C1094.03 826.332 1091.03 824.565 1090.32 821.737Z" fill="url(#paint13_linear)"/>
<path d="M1116.1 826.332C1115.22 823.328 1116.98 820.323 1119.98 819.616C1122.98 818.733 1125.99 820.5 1126.69 823.504C1127.57 826.509 1125.81 829.513 1122.81 830.22C1119.81 830.927 1116.81 829.336 1116.1 826.332Z" fill="url(#paint14_linear)"/>
<path d="M1108.51 861.323C1107.45 857.612 1109.57 853.901 1113.27 852.84C1116.98 851.78 1120.69 853.901 1121.75 857.612C1122.81 861.323 1120.69 865.034 1116.98 866.095C1113.45 867.155 1109.57 865.034 1108.51 861.323Z" fill="url(#paint15_linear)"/>
<path opacity="0.5" d="M1036.48 961.526C1036.48 969.655 1041.95 977.961 1052.72 984.146C1074.43 996.694 1109.57 996.694 1131.11 984.146C1141.87 977.961 1147.35 969.655 1147.35 961.526V677H1036.48V961.526Z" fill="url(#paint16_linear)"/>
</g>
<g clip-path="url(#clip2)">
<path opacity="0.15" d="M377.868 480.11L417.264 457.374C419.642 456.017 423.717 456.017 426.094 457.374L465.66 480.11C468.038 481.467 468.038 483.843 465.66 485.2L426.264 507.936C423.887 509.293 419.811 509.293 417.434 507.936L378.038 485.2C375.491 483.843 375.491 481.467 377.868 480.11Z" fill="#6B99D1"/>
<path opacity="0.15" d="M437.302 502.167L451.226 494.192C460.566 488.763 473.642 487.406 480.264 491.308C486.887 495.21 484.679 502.676 475.17 508.105L461.245 516.08C451.906 521.509 438.83 522.866 432.208 518.964C425.585 515.062 427.962 507.596 437.302 502.167Z" fill="#6B99D1"/>
<path d="M466.509 435.827L427.113 413.091C424.736 411.734 420.66 411.734 418.283 413.091L378.717 435.827C376.34 437.184 376.34 439.559 378.717 440.917L418.283 463.652C420.66 465.009 424.736 465.009 427.113 463.652L466.509 440.917C468.887 439.559 468.887 437.184 466.509 435.827Z" fill="#DCEEFF"/>
<path d="M422.698 413.77C421.34 413.77 419.981 414.109 419.132 414.618L379.736 437.354C379.057 437.693 378.717 438.202 378.717 438.372C378.717 438.541 379.057 439.05 379.736 439.39L419.132 462.295C419.981 462.804 421.34 463.143 422.698 463.143C424.057 463.143 425.415 462.804 426.264 462.295L465.66 439.559C466.34 439.22 466.679 438.711 466.679 438.541C466.679 438.372 466.34 437.863 465.66 437.523L426.264 414.618C425.245 414.109 424.057 413.77 422.698 413.77ZM422.698 412.073C424.226 412.073 425.925 412.412 427.113 413.091L466.509 435.827C468.887 437.184 468.887 439.559 466.509 440.917L427.113 463.652C425.925 464.331 424.226 464.67 422.698 464.67C421.17 464.67 419.472 464.331 418.283 463.652L378.717 440.917C376.34 439.559 376.34 437.184 378.717 435.827L418.283 413.091C419.472 412.412 421 412.073 422.698 412.073Z" fill="white"/>
<path d="M468.377 478.244C468.377 479.262 467.698 480.11 466.51 480.789L427.113 503.524C425.925 504.203 424.566 504.542 422.698 504.542V464.84C424.396 464.84 425.925 464.5 427.113 463.822L466.51 440.917C467.528 440.408 468.377 439.559 468.377 438.372V478.244Z" fill="#A5CBFA"/>
<path d="M377.019 478.244C377.019 479.262 377.698 480.11 378.887 480.789L418.283 503.524C419.472 504.203 420.83 504.542 422.698 504.542V464.84C421 464.84 419.472 464.5 418.283 463.822L378.717 440.917C377.698 440.408 376.849 439.559 376.849 438.372V478.244H377.019Z" fill="#C8E2FF"/>
<path d="M476.868 414.109C475.34 414.109 474.151 413.6 471.943 413.77C470.075 413.939 468.887 413.939 467.189 413.77C465.491 413.43 461.075 409.698 457.34 406.135C453.094 401.893 449.358 395.785 448.34 392.561C446.642 387.132 444.094 376.103 442.906 372.371C441.717 368.638 439.849 367.79 437.642 367.45C434.925 366.941 433.226 367.959 434.245 373.389C435.604 378.988 438.151 389.507 441.547 396.464C443.245 399.857 446.302 404.947 451.736 410.376C455.472 414.109 459.038 416.484 463.623 419.199C464.811 420.047 465.66 420.896 467.698 422.592C469.906 424.289 472.792 425.816 475.17 426.155C477.547 426.495 478.396 426.325 478.736 425.816C479.075 425.307 478.736 424.798 477.717 424.459C476.698 424.119 474.83 423.95 472.962 422.592C472.962 422.592 475.17 423.271 476.528 423.61C477.887 423.95 479.245 423.95 480.264 423.95C481.453 423.95 482.472 422.253 481.453 422.083C480.434 421.744 479.585 421.744 477.547 421.405C475.679 420.896 474.491 420.217 474.491 420.217C474.491 420.217 476.698 420.556 478.736 420.556C480.604 420.556 481.453 420.217 481.962 419.878C482.472 419.538 482.811 418.52 481.453 418.351C480.264 418.181 478.566 418.52 476.358 417.672C474.66 417.163 473.642 416.484 473.981 416.315C474.321 416.145 475.17 416.484 476.698 416.315C478.057 416.145 479.415 414.957 479.075 414.279C478.566 413.6 478.396 414.109 476.868 414.109Z" fill="#FFA8A7"/>
<path d="M437.472 366.772C440.189 366.263 442.396 368.638 443.755 372.54C445.113 376.443 446.811 384.756 447.83 387.641C448.849 390.525 449.358 392.9 449.358 392.9C449.358 392.9 444.774 396.803 439.849 395.785C439.849 395.785 436.623 387.132 435.094 379.836C433.396 372.371 432.717 367.79 437.472 366.772Z" fill="#E4F2F2"/>
<path d="M444.774 394.258C447.491 393.409 449.019 391.543 449.019 391.543L448.849 390.525C448.849 390.525 449.358 390.525 450.208 392.731C451.057 394.936 451.226 396.464 450.887 396.973C448.849 400.027 442.566 401.384 441.377 399.687C440.528 398.5 438.491 395.276 439.17 393.918L439.509 394.936C439.509 394.936 441.377 395.276 444.774 394.258Z" fill="#F5FBFB"/>
<path d="M460.566 485.03C460.566 485.03 460.396 486.557 460.057 487.745C459.717 488.933 459.377 490.969 459.717 491.987C459.887 493.005 462.774 494.362 464.302 494.532C465.83 494.701 468.377 496.398 469.226 497.586C470.585 499.282 473.981 500.47 476.189 500.131C478.396 499.961 480.943 499.282 481.453 498.434C481.962 497.586 481.283 496.568 476.698 493.174C472.113 489.951 469.057 487.915 467.528 484.861L460.566 485.03Z" fill="#2D2979"/>
<path d="M443.755 516.419C444.943 518.116 446.981 518.964 448.849 519.134C449.868 519.303 451.057 519.303 452.075 519.303C453.264 519.303 454.962 518.625 454.792 517.267C454.792 516.758 454.453 516.419 454.283 516.08C452.415 513.704 450.547 511.499 448.849 508.954C446.981 506.239 445.113 503.524 444.434 499.452H437.472C437.472 499.961 437.302 500.809 437.132 501.658C436.962 502.506 436.792 503.185 436.623 503.864C436.283 505.391 436.113 506.918 436.792 508.445C437.302 509.463 438.491 510.141 439.509 510.82C441.377 512.347 442.396 514.383 443.755 516.419Z" fill="#2D2979"/>
<path d="M410.981 424.628C408.434 440.408 416.585 444.989 424.226 450.757C430.509 455.508 436.623 459.071 436.623 459.071C436.623 459.071 435.943 462.804 435.774 470.439C435.774 477.226 437.472 499.452 437.472 499.452C437.472 499.452 441.208 501.318 444.434 499.452C444.434 499.452 446.811 482.655 447.83 474.172C449.358 462.125 450.717 456.696 450.038 454.151C449.528 451.945 439.509 440.917 437.132 437.184L459.377 450.079C459.377 450.079 458.698 455.678 458.698 459.919C458.868 469.081 460.396 485.2 460.396 485.2C460.396 485.2 464.132 487.915 467.189 485.2C467.189 485.2 474.151 447.534 474.151 444.31C474.151 439.22 453.774 426.664 449.358 423.61C445.623 421.235 441.547 418.011 441.547 418.011L410.981 424.628Z" fill="#7FA8E6"/>
<path d="M437.302 437.184C437.302 437.184 440.868 434.469 442.396 429.888C442.396 429.888 442.226 432.942 441.547 435.318C440.868 437.693 459.547 449.909 459.547 449.909L437.302 437.184Z" fill="#597BC6"/>
<path d="M420.151 364.566C420.151 364.566 420.491 372.031 420.321 372.71C420.151 373.389 416.925 375.594 415.906 376.273C414.887 377.121 421 383.06 424.057 384.417C427.113 385.774 436.453 382.211 436.623 377.63C436.792 373.049 434.925 369.147 433.566 368.977C432.208 368.808 420.151 364.566 420.151 364.566Z" fill="#FFA8A7"/>
<path d="M430.849 373.219C431.868 372.371 429.66 369.486 428.981 368.129C425.925 367.281 420.151 364.736 420.151 364.736C420.151 364.736 420.151 366.432 420.321 367.62C420.321 368.977 421.17 370.504 422.359 371.353C423.208 372.031 424.226 372.71 425.755 373.219C426.774 373.558 429.321 374.576 430.849 373.219Z" fill="#F28F8F"/>
<path d="M419.302 373.389C419.302 373.389 424.736 381.533 432.377 382.211C434.755 379.836 434.925 371.522 431.698 368.808C431.698 368.808 434.755 366.432 436.792 366.772C436.792 366.772 440.019 368.468 441.547 372.71C442.906 376.952 444.434 382.042 444.264 390.016C444.094 398.839 443.245 422.423 443.415 418.351C443.415 418.351 444.434 422.592 437.472 426.325C430.679 430.058 424.226 431.924 419.642 430.736C415.736 429.888 411.66 427.513 411.151 424.459C411.491 418.86 412.679 409.698 411.83 402.572C410.981 395.615 410.981 389.846 410.642 384.078C410.302 378.479 411.321 378.479 414.208 376.443C417.774 374.067 419.302 373.389 419.302 373.389Z" fill="#F5FBFB"/>
<path d="M432.208 382.211C432.208 382.211 432.887 378.648 432.887 376.612C432.717 374.067 430.849 370.674 430.849 370.674V368.638C430.849 368.638 432.377 368.808 433.566 370.504C434.925 372.031 436.792 375.425 436.283 378.818C436.283 378.648 435.434 380.515 432.208 382.211Z" fill="#E4F2F2"/>
<path d="M432.208 382.211C432.717 381.193 433.736 377.63 434.245 376.952C435.264 376.612 436.113 378.648 436.113 378.648C436.113 378.648 436.113 380.684 434.755 381.872C433.736 383.06 432.208 382.211 432.208 382.211Z" fill="#F5FBFB"/>
<path d="M434.415 376.952C433.906 377.461 432.887 381.024 432.377 382.211C432.377 382.211 432.887 381.193 433.566 380.515C434.075 379.836 434.755 378.479 436.453 378.648C436.283 378.648 435.434 376.612 434.415 376.952Z" fill="#C8DBDA"/>
<path d="M416.924 348.278C416.924 348.278 416.245 346.072 419.132 343.697C422.698 340.982 427.623 341.661 432.717 343.697C436.113 345.054 441.208 343.357 440.189 347.26C438.66 352.859 427.962 353.368 423.208 349.465C423.038 349.296 419.641 347.769 416.924 348.278Z" fill="#543354"/>
<path d="M420.321 370.674C420.491 371.862 426.604 376.273 427.962 376.952C429.491 377.461 432.208 382.211 432.208 382.211C430 381.872 428.302 382.72 426.604 384.417C426.604 384.417 417.943 380.854 416.585 374.916C416.585 374.916 418.113 371.862 418.453 371.013C418.623 370.165 419.302 369.317 420.321 369.317V370.674Z" fill="#E4F2F2"/>
<path d="M426.774 384.417C426.774 384.417 427.453 380.006 428.302 379.497C429.151 379.157 432.208 382.211 432.208 382.211C431.019 383.229 429.491 384.247 426.774 384.417Z" fill="#F5FBFB"/>
<path d="M428.302 379.497C427.453 379.836 426.774 384.417 426.774 384.417C426.774 384.417 429.151 382.211 430 382.042C430.679 381.872 432.377 382.381 432.377 382.381C432.377 382.381 429.321 379.157 428.302 379.497Z" fill="#C8DBDA"/>
<path d="M437.132 353.537C436.283 347.769 432.038 343.357 426.094 343.697C419.642 344.036 414.887 349.465 415.226 355.913C415.396 359.645 417.434 362.869 420.321 364.736C420.321 364.736 420.83 366.772 421.17 367.281C423.208 369.826 429.66 371.353 431.528 371.013C433.906 370.674 435.094 369.656 436.283 367.111C438.151 362.36 437.472 356.252 437.132 353.537Z" fill="#FFA8A7"/>
<path d="M436.113 348.787C433.566 345.054 429.151 342.848 424.226 343.866C419.302 344.884 415.566 349.126 415.057 354.046C414.717 358.458 416.755 362.36 419.981 364.566C419.811 364.227 416.755 359.646 419.981 358.627C420.491 359.137 420.66 360.155 420.66 361.003C420.66 361.003 422.189 360.833 421.849 359.137C421.679 358.627 421.679 358.118 421.509 357.779C421.17 356.422 421.509 354.895 422.359 353.707C423.038 352.689 423.547 351.501 423.208 349.974C423.208 349.974 427.113 351.671 432.038 350.653C434.245 350.144 435.604 349.465 436.113 348.787Z" fill="#543354"/>
<path d="M415.396 441.256C414.207 440.408 413.528 439.22 411.66 438.032C410.132 437.014 409.453 436.505 408.604 435.148C407.585 433.621 406.396 428.361 405.887 423.271C405.207 417.333 406.566 409.698 407.585 406.644C409.623 400.196 414.038 391.543 415.396 387.81C416.755 384.078 415.906 382.381 414.377 380.684C412.679 378.648 409.623 378.648 406.906 383.738C404.189 388.659 400.453 397.991 398.755 405.456C397.906 409.019 397.057 414.957 397.736 422.592C398.245 427.852 399.604 431.924 401.302 437.014C401.811 438.372 401.811 439.559 402.321 442.274C402.83 444.989 404.189 448.043 405.887 449.739C407.415 451.436 408.264 451.775 408.774 451.606C409.453 451.436 409.453 450.757 408.774 449.909C408.094 449.061 406.906 447.703 406.226 445.498C406.226 445.498 407.585 447.534 408.434 448.552C409.283 449.739 410.302 450.588 411.151 451.266C412.17 451.945 413.868 451.436 413.189 450.418C412.509 449.57 411.83 449.061 410.641 447.364C409.453 445.837 408.943 444.48 408.943 444.48C408.943 444.48 410.472 446.176 412 447.364C413.528 448.552 414.377 448.721 414.887 448.891C415.396 449.061 416.415 448.382 415.396 447.364C414.547 446.516 413.189 445.667 411.83 443.631C410.811 442.274 410.472 441.086 410.811 441.086C411.151 441.086 411.66 441.935 413.019 442.783C414.207 443.462 415.906 443.462 416.245 442.783C416.755 441.935 416.585 442.104 415.396 441.256Z" fill="#FFA8A7"/>
<path d="M414.208 379.157C416.585 380.345 417.094 383.569 415.906 387.471C414.717 391.373 411.151 399.009 410.302 402.063C409.453 405.117 408.434 407.153 408.434 407.153C408.434 407.153 402.491 407.662 399.094 403.759C399.094 403.759 401.642 394.767 404.698 387.98C407.585 381.193 409.792 377.121 414.208 379.157Z" fill="#E4F2F2"/>
<path d="M403.849 405.456C406.566 406.304 408.943 405.795 408.943 405.795L409.283 404.947C409.283 404.947 409.623 405.286 409.113 407.492C408.434 409.867 407.755 411.055 407.075 411.225C403.679 412.412 397.736 409.867 397.736 407.831C397.736 406.474 398.075 402.572 399.434 401.893L399.094 402.911C399.094 402.911 400.453 404.438 403.849 405.456Z" fill="#F5FBFB"/>
<path d="M420.151 364.566C420.151 364.566 419.811 365.245 418.793 365.245C416.755 365.414 414.208 361.512 415.906 358.797C416.925 357.1 419.302 357.779 420.151 358.628V364.566Z" fill="#FFA8A7"/>
<path d="M471.943 432.942L453.943 422.592C453.604 422.423 453.264 422.423 452.925 422.592L421.51 440.747L440.019 451.436L471.943 432.942Z" fill="#EFF6FE"/>
<path d="M439.849 449.909L430.17 444.31L458.359 428.022L468.038 433.621L439.849 449.909Z" fill="#AAD1FC"/>
<path d="M435.094 434.469H435.264L440.019 437.354L448.34 432.433L448.509 432.264L443.585 429.549L435.094 434.469Z" fill="#AEB5B7"/>
<path d="M435.264 434.469L440.019 437.354L448.34 432.433L443.585 429.719L435.264 434.469Z" fill="#AAD1FC"/>
<path d="M421.51 440.747V441.086C421.51 441.765 421.849 442.274 422.359 442.613L439 452.284C439.34 452.454 439.51 452.454 439.849 452.454C440.189 452.454 440.528 452.454 440.698 452.284L471.094 434.978C471.604 434.639 471.943 434.13 471.943 433.451V433.112L440.019 451.606L421.51 440.747Z" fill="#C8E2FF"/>
<path d="M440.019 451.436V452.624C440.359 452.624 440.698 452.624 440.868 452.454L471.094 434.978C471.604 434.639 471.943 434.13 471.943 433.451V433.112L440.019 451.436Z" fill="#AAD1FC"/>
<path d="M440.359 451.775C440.868 451.945 441.547 451.945 442.057 451.606L472.283 434.3C472.792 433.96 473.132 433.451 473.302 432.942L476.528 413.091C476.528 412.921 476.528 412.921 476.528 412.752C476.528 412.243 476.359 411.734 475.849 411.225L444.604 429.21C444.264 429.379 443.925 429.888 443.925 430.228L440.359 451.775Z" fill="#EFF6FE"/>
<path d="M440.019 451.436L440.189 451.606C440.358 451.606 440.358 451.775 440.528 451.775L444.094 430.567C444.094 430.058 444.434 429.718 444.774 429.549L476.019 411.394C475.849 411.225 475.679 411.225 475.679 411.055L444.264 429.209C443.925 429.379 443.585 429.888 443.585 430.228L440.019 451.436Z" fill="#C8E2FF"/>
<path d="M457.34 433.621C457.509 432.264 458.868 430.567 460.396 429.719C461.925 428.87 462.774 429.21 462.604 430.567C462.434 431.924 461.076 433.621 459.547 434.469C458.189 435.318 457.17 434.978 457.34 433.621Z" fill="#AAD1FC"/>
</g>
<path d="M1090.22 222.156C1091.83 222.335 1093.26 221.797 1095.4 222.156C1097.37 222.515 1098.63 222.515 1100.41 222.335C1102.2 222.156 1107.21 218.39 1111.15 214.803C1115.8 210.678 1120.09 204.221 1121.35 200.993C1123.49 195.434 1126.71 183.955 1128.14 180.01C1129.58 176.064 1131.54 175.347 1134.05 174.988C1136.91 174.63 1138.7 175.706 1137.27 181.445C1135.84 187.184 1132.62 198.303 1128.5 205.477C1126.53 208.884 1122.96 214.085 1117.05 219.645C1112.94 223.411 1109 225.563 1103.99 228.433C1102.56 229.15 1101.85 230.047 1099.52 231.84C1097.19 233.634 1093.97 234.889 1091.47 235.248C1088.96 235.427 1088.07 235.248 1087.89 234.71C1087.53 234.172 1088.07 233.634 1089.14 233.455C1090.22 233.275 1092.18 233.096 1094.33 231.84C1094.33 231.84 1092.01 232.558 1090.4 232.737C1088.96 232.917 1087.53 232.917 1086.46 232.917C1085.21 232.737 1084.31 231.123 1085.39 230.764C1086.28 230.226 1087.18 230.226 1089.32 229.868C1091.29 229.509 1092.72 228.792 1092.72 228.792C1092.72 228.792 1090.4 229.15 1088.25 228.971C1086.28 228.792 1085.39 228.433 1084.85 228.074C1084.31 227.716 1084.13 226.639 1085.56 226.46C1086.82 226.281 1088.61 226.639 1090.93 226.101C1092.72 225.563 1093.79 225.025 1093.62 224.846C1093.26 224.667 1092.36 225.025 1090.75 224.667C1089.32 224.308 1088.07 223.053 1088.25 222.335C1088.43 221.438 1088.61 221.977 1090.22 222.156Z" fill="#FFA8A7"/>
<path d="M1126.89 181.983C1127.79 178.754 1128.68 177.32 1130.47 175.885C1132.44 174.63 1134.05 174.63 1134.05 174.63L1138.16 192.923L1134.05 202.249C1127.61 203.863 1122.24 197.048 1122.24 197.048C1122.24 197.048 1126 184.852 1126.89 181.983Z" fill="#E4F2F2"/>
<path d="M1148.54 318.284C1148.54 318.284 1148.9 319.899 1149.43 320.975C1149.97 322.23 1150.51 324.203 1150.51 325.458C1150.51 326.534 1148.18 328.328 1146.57 328.866C1144.96 329.404 1142.64 331.556 1141.92 332.811C1140.85 334.784 1137.45 336.578 1135.12 336.578C1132.8 336.578 1130.11 336.578 1129.4 335.681C1128.68 334.784 1129.4 333.708 1133.69 329.583C1137.98 325.458 1140.85 322.768 1141.92 319.361L1148.54 318.284Z" fill="#2D2979"/>
<path d="M1160.17 331.018C1160.71 332.273 1161.6 332.991 1161.42 336.578C1161.06 339.985 1161.42 341.42 1161.78 344.289C1162.14 347.159 1160.71 350.925 1159.27 352.719C1157.84 354.512 1154.27 354.871 1153.01 351.643C1151.76 348.414 1151.58 345.724 1152.3 342.496C1153.19 339.268 1151.94 336.757 1152.66 334.605C1153.19 332.453 1153.91 331.018 1153.91 331.018H1160.17Z" fill="#2D2979"/>
<path d="M1160.17 241.884C1159.99 245.471 1158.92 261.253 1158.38 269.503C1158.02 277.932 1157.13 287.617 1157.13 287.617C1157.13 287.617 1159.27 294.252 1160.17 301.247C1161.06 308.421 1160.17 330.839 1160.17 330.839C1160.17 330.839 1157.49 332.811 1154.09 330.839C1154.09 330.839 1149.79 310.931 1148 302.861C1146.21 294.79 1144.43 290.845 1144.07 285.823C1143.71 280.801 1141.92 252.286 1141.92 252.286H1141.03L1138.7 278.111C1138.7 278.111 1141.74 283.133 1143.17 288.155C1144.43 293.176 1148.54 317.746 1148.54 317.746C1148.54 317.746 1145.68 320.975 1141.92 318.823C1141.92 318.823 1127.61 285.823 1126.18 282.595C1124.92 279.367 1126.71 232.917 1126.71 232.917L1160.17 241.884Z" fill="#7FA8E6"/>
<path d="M1141.92 252.465C1141.92 252.465 1135.48 249.954 1132.44 247.802C1132.44 247.802 1134.05 250.313 1138.16 252.465C1138.52 255.873 1138.52 278.47 1138.52 278.47L1140.85 252.644L1141.92 252.465Z" fill="#597BC6"/>
<path d="M1151.58 171.76C1151.58 171.76 1151.22 179.651 1151.4 180.369C1151.58 181.086 1154.98 183.417 1156.05 184.135C1157.13 185.032 1150.69 191.309 1147.47 192.743C1144.25 194.178 1134.41 190.412 1134.23 185.57C1134.05 180.727 1136.02 176.602 1137.45 176.423C1138.88 176.244 1151.58 171.76 1151.58 171.76Z" fill="#FFA8A7"/>
<path d="M1151.58 171.76L1151.4 177.32C1151.4 177.32 1146.39 182.162 1142.28 181.445C1140.13 181.086 1140.31 179.651 1140.31 179.651V174.988L1151.58 171.76Z" fill="#F28F8F"/>
<path d="M1152.48 181.624C1152.48 181.624 1146.75 190.233 1138.7 190.95C1136.2 188.439 1136.02 179.651 1139.42 176.782C1139.42 176.782 1136.2 174.271 1134.05 174.63C1134.05 174.63 1130.65 176.423 1129.04 180.907C1127.61 185.39 1126.18 190.771 1126.18 199.2C1126.36 207.629 1126.18 233.275 1126.18 233.275C1126.18 233.275 1127.43 238.656 1134.59 242.78C1141.74 246.726 1147.11 247.264 1152.12 246.009C1156.23 245.112 1159.45 243.677 1160.89 240.628C1160.53 234.889 1157.84 219.466 1158.92 212.113C1159.81 204.759 1161.42 199.2 1161.78 193.281C1162.14 187.363 1161.06 187.363 1158.02 185.211C1154.09 182.341 1152.48 181.624 1152.48 181.624Z" fill="#F5FBFB"/>
<path d="M1138.7 190.95C1138.7 190.95 1137.98 187.184 1137.98 185.032C1138.16 182.341 1140.13 178.754 1140.13 178.754V176.602C1140.13 176.602 1138.52 176.782 1137.27 178.575C1135.84 180.189 1133.87 183.776 1134.41 187.363C1134.41 187.184 1135.48 189.156 1138.7 190.95Z" fill="#E4F2F2"/>
<path d="M1138.7 190.95C1138.16 189.874 1137.09 186.108 1136.55 185.39C1135.48 185.032 1134.59 187.184 1134.59 187.184C1134.59 187.184 1134.59 189.336 1136.02 190.591C1137.09 191.847 1138.7 190.95 1138.7 190.95Z" fill="#F5FBFB"/>
<path d="M1136.55 185.39C1137.09 185.928 1138.16 189.694 1138.7 190.95C1138.7 190.95 1138.16 189.874 1137.45 189.156C1136.91 188.439 1136.2 187.004 1134.41 187.184C1134.41 187.184 1135.48 185.211 1136.55 185.39Z" fill="#C8DBDA"/>
<path d="M1133.69 160.103C1134.59 154.005 1139.06 149.342 1145.32 149.701C1152.12 150.059 1157.13 155.798 1156.77 162.613C1156.59 166.559 1154.44 169.967 1151.4 171.939C1151.4 171.939 1150.87 174.092 1150.51 174.63C1148.36 177.32 1141.56 178.934 1139.6 178.575C1137.09 178.216 1135.84 177.14 1134.59 174.45C1132.44 169.608 1133.15 163.152 1133.69 160.103Z" fill="#FFA8A7"/>
<path d="M1134.59 155.081C1137.27 151.135 1141.92 148.804 1147.11 149.88C1150.33 150.597 1153.01 152.57 1154.8 155.081C1157.49 155.978 1157.66 157.951 1157.31 161.179C1156.95 164.586 1156.23 167.814 1154.62 170.684C1154.27 171.76 1152.48 171.222 1151.58 171.76C1151.76 171.401 1154.98 166.559 1151.58 165.483C1151.05 166.021 1150.87 167.097 1150.87 167.994C1150.87 167.994 1149.26 167.814 1149.61 166.021C1149.79 165.483 1149.79 164.945 1149.97 164.586C1150.33 163.152 1149.97 161.537 1149.08 160.282C1148.36 159.206 1147.82 157.951 1148.18 156.336C1148.18 156.336 1144.07 158.13 1138.88 157.054C1136.73 156.695 1135.12 155.798 1134.59 155.081Z" fill="#543354"/>
<path d="M1154.8 155.081C1154.8 155.081 1155.52 152.75 1152.48 150.239C1148.72 147.369 1143.53 148.087 1138.16 150.239C1134.59 151.673 1129.22 149.88 1130.29 154.005C1131.9 159.923 1143.17 160.461 1148.18 156.336C1148.54 156.336 1152.12 154.543 1154.8 155.081Z" fill="#543354"/>
<path d="M1151.58 171.76C1151.58 171.76 1151.94 172.477 1153.01 172.477C1155.16 172.657 1157.84 168.532 1156.05 165.662C1154.98 163.869 1152.48 164.586 1151.58 165.483V171.76Z" fill="#FFA8A7"/>
<path d="M1151.22 178.934C1151.05 180.189 1144.6 184.852 1143.17 185.57C1141.56 186.108 1138.7 191.129 1138.7 191.129C1141.03 190.771 1142.82 191.667 1144.6 193.461C1144.6 193.461 1153.73 189.695 1155.16 183.417C1155.16 183.417 1153.55 180.189 1153.19 179.293C1153.01 178.396 1152.3 177.499 1151.22 177.499V178.934Z" fill="#E4F2F2"/>
<path d="M1144.6 193.281C1144.6 193.281 1143.89 188.618 1142.99 188.08C1142.1 187.722 1138.88 190.95 1138.88 190.95C1139.95 192.026 1141.74 193.102 1144.6 193.281Z" fill="#F5FBFB"/>
<path d="M1142.82 188.08C1143.71 188.439 1144.43 193.281 1144.43 193.281C1144.43 193.281 1141.92 190.95 1141.03 190.771C1140.31 190.591 1138.52 191.129 1138.52 191.129C1138.52 191.129 1141.92 187.722 1142.82 188.08Z" fill="#C8DBDA"/>
<path opacity="0.15" d="M976.968 367.604L1062.13 416.924C1063.38 417.641 1065.17 418 1066.78 418C1068.39 418 1070.18 417.641 1071.43 416.924L1156.59 367.604C1157.84 366.887 1158.56 365.811 1158.56 364.914C1158.56 364.197 1158.2 363.479 1157.49 362.941C1157.31 362.762 1156.95 362.403 1156.59 362.224L1071.43 312.904C1068.93 311.469 1064.63 311.469 1062.13 312.904L976.968 362.224C974.463 363.659 974.463 366.169 976.968 367.604Z" fill="#6B99D1"/>
<path d="M976.968 310.573L1062.13 359.892C1063.38 360.61 1065.17 360.968 1066.78 360.968C1068.39 360.968 1070.18 360.61 1071.43 359.892L1156.59 310.573C1157.84 309.855 1158.56 308.779 1158.56 307.882C1158.56 306.806 1157.84 305.91 1156.59 305.192L1142.99 297.301L1071.43 255.873C1068.93 254.438 1064.63 254.438 1062.13 255.873L976.968 305.192C974.463 306.627 974.463 308.959 976.968 310.573Z" fill="#DCEEFF"/>
<path d="M1066.78 341.42V360.789C1068.39 360.789 1070.18 360.43 1071.43 359.713L1156.59 310.573C1157.84 309.855 1158.56 308.779 1158.56 307.882V291.024C1158.56 290.307 1158.2 289.589 1157.49 289.051L1142.99 297.481L1066.78 341.42Z" fill="#A5CBFA"/>
<path d="M1066.78 341.42V360.789C1065.17 360.789 1063.38 360.43 1062.13 359.713L976.968 310.393C975.716 309.676 975 308.6 975 307.703V290.845C975 290.127 975.358 289.41 976.073 288.872L990.565 297.301L1066.78 341.42Z" fill="#C8E2FF"/>
<path d="M976.968 293.714L1062.13 343.034C1063.38 343.751 1065.17 344.11 1066.78 344.11C1068.39 344.11 1070.18 343.751 1071.43 343.034L1156.59 293.714C1157.84 292.997 1158.56 291.921 1158.56 291.024C1158.56 290.307 1158.2 289.589 1157.49 289.051C1157.31 288.872 1156.95 288.513 1156.59 288.334L1071.43 239.014C1068.93 237.579 1064.63 237.579 1062.13 239.014L976.968 288.334C974.463 289.769 974.463 292.28 976.968 293.714Z" fill="#DCEEFF"/>
<path d="M1066.78 239.732C1065.35 239.732 1063.92 240.09 1063.02 240.628L977.863 289.948C977.147 290.307 976.789 290.845 976.789 291.024C976.789 291.203 976.968 291.741 977.863 292.1L1063.02 341.42C1063.92 341.958 1065.35 342.317 1066.78 342.317C1068.21 342.317 1069.64 341.958 1070.54 341.42L1155.7 292.1C1156.41 291.741 1156.77 291.383 1156.77 291.024C1156.77 290.845 1156.59 290.486 1156.41 290.307C1156.23 290.127 1156.05 289.948 1155.88 289.948L1070.72 240.628C1069.64 239.911 1068.21 239.732 1066.78 239.732ZM1066.78 237.938C1068.39 237.938 1070.18 238.297 1071.43 239.014L1156.59 288.334C1156.95 288.513 1157.31 288.693 1157.49 289.051C1158.2 289.589 1158.56 290.307 1158.56 291.024C1158.56 291.921 1157.84 292.997 1156.59 293.714L1071.43 343.034C1070.18 343.751 1068.39 344.11 1066.78 344.11C1065.17 344.11 1063.38 343.751 1062.13 343.034L976.968 293.714C974.463 292.28 974.463 289.769 976.968 288.334L1062.13 239.014C1063.38 238.297 1065.17 237.938 1066.78 237.938Z" fill="white"/>
<path d="M1069.82 250.672L1136.37 289.231C1138.16 290.307 1138.16 291.742 1136.37 292.818L1069.82 331.377C1068.03 332.453 1065.35 332.453 1063.56 331.377L997.006 292.818C995.217 291.742 995.217 290.307 997.006 289.231L1063.74 250.672C1065.35 249.775 1068.21 249.775 1069.82 250.672Z" fill="#344593"/>
<path d="M997.185 289.231L1063.74 250.672C1064.63 250.134 1065.71 249.954 1066.78 249.954V253.182L997.721 292.997L997.185 292.638C995.574 291.742 995.574 290.127 997.185 289.231Z" fill="#1E3779"/>
<path d="M1066.78 249.954C1067.85 249.954 1069.11 250.134 1069.82 250.672L1136.37 289.231C1138.16 290.307 1138.16 291.742 1136.37 292.818L1135.84 293.176L1066.78 253.182V249.954Z" fill="#031F60"/>
<path d="M1088.61 269.861L1066.78 282.595V215.341L1088.61 202.607V269.861Z" fill="#57F7E0"/>
<path d="M1066.78 282.595L1044.95 269.861V202.607L1066.78 215.341V282.595Z" fill="#6CFFE6"/>
<path d="M1044.95 202.607L1066.78 190.053L1088.61 202.607L1066.78 215.341L1044.95 202.607Z" fill="#ABFFEF"/>
<path d="M1066.78 282.595C1066.78 282.595 1067.14 282.416 1067.32 281.878C1067.5 281.34 1067.5 280.622 1067.5 279.725C1067.5 277.932 1067.5 275.242 1067.5 272.014C1067.5 265.737 1067.5 257.307 1067.32 248.878C1067.14 240.449 1067.14 232.02 1066.96 225.743C1066.78 219.466 1066.78 215.161 1066.78 215.161C1066.78 215.161 1066.78 219.286 1066.6 225.743C1066.42 232.02 1066.42 240.449 1066.24 248.878C1066.24 257.307 1066.24 265.737 1066.06 272.014C1066.06 275.242 1066.06 277.753 1066.06 279.725C1066.06 280.622 1066.06 281.34 1066.24 281.878C1066.42 282.236 1066.78 282.595 1066.78 282.595Z" fill="white"/>
<path d="M1044.95 202.607C1044.95 202.607 1044.95 202.966 1044.95 203.145C1044.95 203.504 1045.31 203.504 1045.49 203.683C1046.03 204.042 1046.92 204.58 1047.99 205.118C1049.96 206.374 1052.82 207.808 1055.51 209.422C1058.37 210.857 1061.05 212.471 1063.2 213.547C1065.35 214.623 1066.78 215.341 1066.78 215.341C1066.78 215.341 1065.53 214.444 1063.56 213.189C1061.59 211.933 1058.91 210.319 1056.22 208.526C1053.54 206.912 1050.86 205.297 1048.71 204.042C1047.64 203.504 1046.92 202.966 1046.21 202.607C1045.85 202.428 1045.67 202.249 1045.49 202.428C1045.31 202.428 1044.95 202.607 1044.95 202.607Z" fill="white"/>
<path d="M1052.29 291.024L1030.46 303.578V244.753L1052.29 232.02V291.024Z" fill="#57F7E0"/>
<path d="M1030.46 303.578L1008.63 291.024V232.02L1030.46 244.753V303.578Z" fill="#6CFFE6"/>
<path d="M1008.63 232.02L1030.46 219.466L1052.29 232.02L1030.46 244.753L1008.63 232.02Z" fill="#ABFFEF"/>
<path d="M1030.46 303.578C1030.46 303.578 1030.82 303.399 1031 302.861C1031.18 302.502 1031.18 301.785 1031.18 301.067C1031.18 299.453 1031.18 297.122 1031.18 294.432C1031.18 288.872 1031.18 281.519 1031 274.166C1030.82 266.813 1030.82 259.46 1030.64 253.9C1030.46 248.34 1030.46 244.753 1030.46 244.753C1030.46 244.753 1030.46 248.519 1030.28 253.9C1030.1 259.46 1030.1 266.813 1029.92 274.166C1029.92 281.519 1029.92 288.872 1029.75 294.432C1029.75 297.122 1029.75 299.453 1029.75 301.067C1029.75 301.785 1029.75 302.502 1029.92 302.861C1030.1 303.399 1030.46 303.578 1030.46 303.578Z" fill="white"/>
<path d="M1008.63 232.02C1008.63 232.02 1008.63 232.378 1008.63 232.558C1008.63 232.917 1008.99 232.917 1009.17 233.096C1009.71 233.455 1010.6 233.993 1011.68 234.531C1013.64 235.786 1016.51 237.221 1019.19 238.835C1022.05 240.27 1024.74 241.884 1026.88 242.96C1029.03 244.036 1030.46 244.753 1030.46 244.753C1030.46 244.753 1029.21 243.857 1027.24 242.601C1025.27 241.346 1022.59 239.732 1019.91 237.938C1017.22 236.324 1014.54 234.71 1012.39 233.455C1011.32 232.917 1010.6 232.378 1009.89 232.02C1009.53 231.84 1009.35 231.661 1009.17 231.84C1008.81 231.84 1008.63 232.199 1008.63 232.02Z" fill="white"/>
<path d="M1124.92 291.024L1103.1 303.578V236.324L1124.92 223.77V291.024Z" fill="#57F7E0"/>
<path d="M1103.1 303.578L1081.27 291.024V223.77L1103.1 236.324V303.578Z" fill="#6CFFE6"/>
<path d="M1081.27 223.77L1103.1 211.036L1124.92 223.77L1103.1 236.324L1081.27 223.77Z" fill="#ABFFEF"/>
<path d="M1103.1 303.578C1103.1 303.578 1103.46 303.399 1103.63 302.861C1103.81 302.323 1103.81 301.605 1103.81 300.709C1103.81 298.915 1103.81 296.225 1103.81 292.997C1103.81 286.72 1103.81 278.291 1103.63 269.861C1103.46 261.432 1103.46 253.003 1103.28 246.726C1103.1 240.449 1103.1 236.145 1103.1 236.145C1103.1 236.145 1103.1 240.27 1102.92 246.726C1102.74 253.003 1102.74 261.432 1102.56 269.861C1102.56 278.291 1102.56 286.72 1102.38 292.997C1102.38 296.225 1102.38 298.736 1102.38 300.709C1102.38 301.605 1102.38 302.323 1102.56 302.861C1102.74 303.399 1103.1 303.578 1103.1 303.578Z" fill="white"/>
<path d="M1081.27 223.77C1081.27 223.77 1081.27 224.129 1081.27 224.308C1081.27 224.667 1081.63 224.667 1081.81 224.846C1082.34 225.205 1083.24 225.743 1084.31 226.281C1086.28 227.536 1089.14 228.971 1091.83 230.585C1094.69 232.02 1097.37 233.634 1099.52 234.71C1101.67 235.786 1103.1 236.503 1103.1 236.503C1103.1 236.503 1101.85 235.607 1099.88 234.351C1097.91 233.096 1095.23 231.482 1092.54 229.688C1089.86 228.074 1087.18 226.46 1085.03 225.205C1083.95 224.667 1083.24 224.129 1082.52 223.77C1082.17 223.591 1081.99 223.411 1081.81 223.591C1081.63 223.411 1081.27 223.77 1081.27 223.77Z" fill="white"/>
<path d="M1088.61 312.007L1066.78 324.562V274.166L1088.61 261.612V312.007Z" fill="#57F7E0"/>
<path d="M1066.78 324.562L1044.95 312.007V261.612L1066.78 274.166V324.562Z" fill="#6CFFE6"/>
<path d="M1044.95 261.612L1066.78 248.878L1088.61 261.612L1066.78 274.166L1044.95 261.612Z" fill="#ABFFEF"/>
<path d="M1066.78 324.562C1066.78 324.562 1067.14 324.382 1067.32 324.024C1067.5 323.665 1067.5 323.127 1067.5 322.409C1067.5 320.975 1067.5 319.002 1067.5 316.67C1067.5 312.007 1067.5 305.551 1067.32 299.274C1067.14 292.997 1067.14 286.72 1066.96 281.878C1066.78 277.215 1066.78 273.986 1066.78 273.986C1066.78 273.986 1066.78 277.215 1066.6 281.878C1066.42 286.541 1066.42 292.997 1066.24 299.274C1066.24 305.551 1066.24 311.828 1066.06 316.67C1066.06 319.002 1066.06 320.975 1066.06 322.409C1066.06 323.127 1066.06 323.665 1066.24 324.024C1066.42 324.382 1066.78 324.562 1066.78 324.562Z" fill="white"/>
<path d="M1044.95 261.612C1044.95 261.612 1044.95 261.97 1044.95 262.15C1044.95 262.508 1045.31 262.508 1045.49 262.688C1046.03 263.046 1046.92 263.584 1047.99 264.122C1049.96 265.378 1052.82 266.813 1055.51 268.427C1058.37 269.861 1061.05 271.476 1063.2 272.552C1065.35 273.628 1066.78 274.345 1066.78 274.345C1066.78 274.345 1065.53 273.448 1063.56 272.193C1061.59 270.938 1058.91 269.323 1056.22 267.53C1053.54 265.916 1050.86 264.302 1048.71 263.046C1047.64 262.508 1046.92 261.97 1046.21 261.612C1045.85 261.432 1045.67 261.253 1045.49 261.432C1045.31 261.253 1044.95 261.612 1044.95 261.612Z" fill="white"/>
<path opacity="0.3" d="M1062.13 166.38C1063.56 167.276 1064.99 167.635 1066.78 167.456V332.094C1065.71 332.094 1064.63 331.915 1063.74 331.377L997.721 292.997C996.469 292.28 995.932 291.742 995.932 290.845V128L1062.13 166.38Z" fill="url(#paint17_linear)"/>
<path opacity="0.5" d="M1066.78 167.456C1067.14 167.456 1067.5 167.456 1068.03 167.456C1068.39 167.456 1068.75 167.276 1069.11 167.276C1069.28 167.276 1069.64 167.097 1069.82 167.097C1070 167.097 1070.18 167.097 1070.18 166.918C1070.54 166.738 1070.89 166.559 1071.25 166.38L1137.63 128V291.024C1137.63 291.742 1137.09 292.28 1136.37 292.818L1069.82 331.377C1068.75 331.915 1067.85 332.094 1066.78 332.094V167.456Z" fill="url(#paint18_linear)"/>
<path d="M1119.2 237.759C1120.81 237.759 1122.06 237.221 1124.39 237.4C1126.36 237.579 1127.07 237.579 1128.86 237.041C1130.65 236.503 1135.12 232.737 1138.88 228.971C1143.35 224.487 1147.11 217.314 1148.36 214.085C1150.87 207.45 1153.01 197.227 1154.27 193.281C1155.52 189.336 1157.49 188.439 1159.81 187.901C1162.67 187.363 1165 189.336 1163.93 195.254C1162.85 201.173 1159.99 211.395 1156.41 218.748C1154.8 222.335 1151.58 227.895 1146.04 233.634C1142.1 237.759 1138.34 240.09 1133.69 243.319C1132.44 244.215 1131.72 245.112 1129.4 247.085C1127.07 249.058 1124.03 250.672 1121.7 251.03C1119.2 251.389 1118.31 251.21 1117.95 250.672C1117.59 250.134 1117.95 249.596 1119.02 249.237C1120.09 248.878 1122.06 248.519 1124.03 247.264C1124.03 247.264 1121.7 247.981 1120.27 248.34C1118.84 248.699 1117.41 248.878 1116.34 248.699C1115.08 248.699 1114.01 247.085 1115.08 246.726C1116.16 246.367 1117.05 246.367 1119.2 245.829C1121.17 245.291 1122.42 244.574 1122.42 244.574C1122.42 244.574 1120.09 245.112 1117.95 245.112C1115.98 245.112 1115.08 244.753 1114.55 244.395C1114.01 244.036 1113.65 242.96 1115.08 242.78C1116.34 242.601 1118.13 242.78 1120.45 242.063C1122.24 241.525 1123.31 240.808 1122.96 240.628C1122.6 240.449 1121.7 240.808 1120.09 240.628C1118.66 240.449 1117.23 239.373 1117.41 238.476C1117.59 237.579 1117.59 237.759 1119.2 237.759Z" fill="#FFA8A7"/>
<path d="M1161.42 187.722C1164.28 188.977 1165.72 192.205 1164.64 197.944C1163.57 203.683 1161.06 212.292 1161.06 212.292C1161.06 212.292 1155.52 212.471 1149.97 207.808C1149.97 207.808 1152.66 195.434 1153.73 192.205C1154.8 188.798 1157.49 185.928 1161.42 187.722Z" fill="#E4F2F2"/>
<defs>
<filter id="filter0_i" x="6.10352e-05" y="-425.701" width="1930.4" height="1930.4" filterUnits="userSpaceOnUse" color-interpolation-filters="sRGB">
<feFlood flood-opacity="0" result="BackgroundImageFix"/>
<feBlend mode="normal" in="SourceGraphic" in2="BackgroundImageFix" result="shape"/>
<feColorMatrix in="SourceAlpha" type="matrix" values="0 0 0 0 0 0 0 0 0 0 0 0 0 0 0 0 0 0 127 0" result="hardAlpha"/>
<feOffset dx="12" dy="45"/>
<feComposite in2="hardAlpha" operator="arithmetic" k2="-1" k3="1"/>
<feColorMatrix type="matrix" values="0 0 0 0 0 0 0 0 0 0 0 0 0 0 0 0 0 0 0.1 0"/>
<feBlend mode="normal" in2="shape" result="effect1_innerShadow"/>
</filter>
<linearGradient id="paint0_linear" x1="629.691" y1="527.945" x2="655.496" y2="527.945" gradientUnits="userSpaceOnUse">
<stop stop-color="#C8E2FF"/>
<stop offset="0.1783" stop-color="#C2DEFC"/>
<stop offset="0.4099" stop-color="#B2D1F4"/>
<stop offset="0.671" stop-color="#97BCE7"/>
<stop offset="0.9518" stop-color="#729FD5"/>
<stop offset="1" stop-color="#6B99D1"/>
</linearGradient>
<linearGradient id="paint1_linear" x1="651.312" y1="540.484" x2="677.117" y2="540.484" gradientUnits="userSpaceOnUse">
<stop stop-color="#C8E2FF"/>
<stop offset="0.1783" stop-color="#C2DEFC"/>
<stop offset="0.4099" stop-color="#B2D1F4"/>
<stop offset="0.671" stop-color="#97BCE7"/>
<stop offset="0.9518" stop-color="#729FD5"/>
<stop offset="1" stop-color="#6B99D1"/>
</linearGradient>
<linearGradient id="paint2_linear" x1="672.934" y1="553.024" x2="698.737" y2="553.024" gradientUnits="userSpaceOnUse">
<stop stop-color="#C8E2FF"/>
<stop offset="0.1783" stop-color="#C2DEFC"/>
<stop offset="0.4099" stop-color="#B2D1F4"/>
<stop offset="0.671" stop-color="#97BCE7"/>
<stop offset="0.9518" stop-color="#729FD5"/>
<stop offset="1" stop-color="#6B99D1"/>
</linearGradient>
<linearGradient id="paint3_linear" x1="694.554" y1="565.562" x2="720.359" y2="565.562" gradientUnits="userSpaceOnUse">
<stop stop-color="#C8E2FF"/>
<stop offset="0.1783" stop-color="#C2DEFC"/>
<stop offset="0.4099" stop-color="#B2D1F4"/>
<stop offset="0.671" stop-color="#97BCE7"/>
<stop offset="0.9518" stop-color="#729FD5"/>
<stop offset="1" stop-color="#6B99D1"/>
</linearGradient>
<linearGradient id="paint4_linear" x1="854.414" y1="527.945" x2="828.61" y2="527.945" gradientUnits="userSpaceOnUse">
<stop stop-color="#C8E2FF"/>
<stop offset="0.1783" stop-color="#C2DEFC"/>
<stop offset="0.4099" stop-color="#B2D1F4"/>
<stop offset="0.671" stop-color="#97BCE7"/>
<stop offset="0.9518" stop-color="#729FD5"/>
<stop offset="1" stop-color="#6B99D1"/>
</linearGradient>
<linearGradient id="paint5_linear" x1="832.793" y1="540.484" x2="806.989" y2="540.484" gradientUnits="userSpaceOnUse">
<stop stop-color="#C8E2FF"/>
<stop offset="0.1783" stop-color="#C2DEFC"/>
<stop offset="0.4099" stop-color="#B2D1F4"/>
<stop offset="0.671" stop-color="#97BCE7"/>
<stop offset="0.9518" stop-color="#729FD5"/>
<stop offset="1" stop-color="#6B99D1"/>
</linearGradient>
<linearGradient id="paint6_linear" x1="811.171" y1="553.024" x2="785.368" y2="553.024" gradientUnits="userSpaceOnUse">
<stop stop-color="#C8E2FF"/>
<stop offset="0.1783" stop-color="#C2DEFC"/>
<stop offset="0.4099" stop-color="#B2D1F4"/>
<stop offset="0.671" stop-color="#97BCE7"/>
<stop offset="0.9518" stop-color="#729FD5"/>
<stop offset="1" stop-color="#6B99D1"/>
</linearGradient>
<linearGradient id="paint7_linear" x1="789.552" y1="565.562" x2="763.746" y2="565.562" gradientUnits="userSpaceOnUse">
<stop stop-color="#C8E2FF"/>
<stop offset="0.1783" stop-color="#C2DEFC"/>
<stop offset="0.4099" stop-color="#B2D1F4"/>
<stop offset="0.671" stop-color="#97BCE7"/>
<stop offset="0.9518" stop-color="#729FD5"/>
<stop offset="1" stop-color="#6B99D1"/>
</linearGradient>
<linearGradient id="paint8_linear" x1="939.043" y1="518.706" x2="753.987" y2="192.743" gradientUnits="userSpaceOnUse">
<stop stop-color="#57F7E0"/>
<stop offset="1" stop-color="#57F7E0" stop-opacity="0"/>
</linearGradient>
<linearGradient id="paint9_linear" x1="545.357" y1="519.984" x2="693.801" y2="255.979" gradientUnits="userSpaceOnUse">
<stop stop-color="#57F7E0"/>
<stop offset="1" stop-color="#57F7E0" stop-opacity="0"/>
</linearGradient>
<linearGradient id="paint10_linear" x1="1025" y1="995.766" x2="1159" y2="995.766" gradientUnits="userSpaceOnUse">
<stop stop-color="#A5CBFA"/>
<stop offset="0.3632" stop-color="#A8CDFA"/>
<stop offset="0.6668" stop-color="#B3D4FC"/>
<stop offset="0.9482" stop-color="#C4DFFE"/>
<stop offset="1" stop-color="#C8E2FF"/>
</linearGradient>
<linearGradient id="paint11_linear" x1="1036.52" y1="975.199" x2="1147.49" y2="975.199" gradientUnits="userSpaceOnUse">
<stop stop-color="#A5CBFA"/>
<stop offset="0.3632" stop-color="#A8CDFA"/>
<stop offset="0.6668" stop-color="#B3D4FC"/>
<stop offset="0.9482" stop-color="#C4DFFE"/>
<stop offset="1" stop-color="#C8E2FF"/>
</linearGradient>
<linearGradient id="paint12_linear" x1="1059.21" y1="860.549" x2="1075.88" y2="869.956" gradientUnits="userSpaceOnUse">
<stop stop-color="#91F1E6"/>
<stop offset="1" stop-color="#0662DD"/>
</linearGradient>
<linearGradient id="paint13_linear" x1="1091.15" y1="817.707" x2="1100.14" y2="822.781" gradientUnits="userSpaceOnUse">
<stop stop-color="#91F1E6"/>
<stop offset="1" stop-color="#0662DD"/>
</linearGradient>
<linearGradient id="paint14_linear" x1="1116.93" y1="822.385" x2="1125.92" y2="827.459" gradientUnits="userSpaceOnUse">
<stop stop-color="#91F1E6"/>
<stop offset="1" stop-color="#0662DD"/>
</linearGradient>
<linearGradient id="paint15_linear" x1="1109.71" y1="856.434" x2="1120.97" y2="862.793" gradientUnits="userSpaceOnUse">
<stop stop-color="#91F1E6"/>
<stop offset="1" stop-color="#0662DD"/>
</linearGradient>
<linearGradient id="paint16_linear" x1="1092" y1="992.908" x2="1092" y2="675.089" gradientUnits="userSpaceOnUse">
<stop stop-color="#57F7D7" stop-opacity="0.7"/>
<stop offset="0.904" stop-color="#57F7DF" stop-opacity="0.0671924"/>
<stop offset="1" stop-color="#57F7E0" stop-opacity="0"/>
</linearGradient>
<linearGradient id="paint17_linear" x1="995.886" y1="292.65" x2="1052.64" y2="192.927" gradientUnits="userSpaceOnUse">
<stop stop-color="#57F7E0"/>
<stop offset="0.0777677" stop-color="#57F7E0" stop-opacity="0.9222"/>
<stop offset="1" stop-color="#57F7E0" stop-opacity="0"/>
</linearGradient>
<linearGradient id="paint18_linear" x1="1137.61" y1="293.076" x2="1092.09" y2="212.319" gradientUnits="userSpaceOnUse">
<stop stop-color="#57F7E0"/>
<stop offset="0.0777677" stop-color="#57F7E0" stop-opacity="0.9222"/>
<stop offset="1" stop-color="#57F7E0" stop-opacity="0"/>
</linearGradient>
<clipPath id="clip0">
<rect width="221" height="293" fill="white" transform="translate(623 678)"/>
</clipPath>
<clipPath id="clip1">
<rect width="134" height="369" fill="white" transform="translate(1025 677)"/>
</clipPath>
<clipPath id="clip2">
<rect width="108" height="179" fill="white" transform="matrix(-1 0 0 1 484 342)"/>
</clipPath>
</defs>
</svg>
