<svg width="336" height="560" viewBox="0 0 336 560" fill="none" xmlns="http://www.w3.org/2000/svg">
<path opacity="0.15" d="M330.102 435.933L205.712 364.17C198.206 359.886 185.338 359.886 177.832 364.17L52.9057 435.933C45.3994 440.218 45.3994 447.715 52.9057 452L177.296 523.763C184.802 528.047 197.67 528.047 205.176 523.763L329.566 452C337.609 447.715 337.609 440.218 330.102 435.933Z" fill="#6B99D1"/>
<path d="M50.2249 296.157L174.615 224.394C182.121 220.11 194.989 220.11 202.495 224.394L327.421 296.157C334.928 300.441 334.928 307.939 327.421 312.223L202.495 383.986C194.989 388.271 182.121 388.271 174.615 383.986L50.2249 312.223C42.7186 307.939 42.7186 300.441 50.2249 296.157Z" fill="#DCEEFF"/>
<path d="M188.555 226.536C192.844 226.536 197.134 227.607 199.815 229.214L324.204 300.977C326.349 302.048 327.421 303.655 327.421 304.19C327.421 304.726 326.349 306.332 324.204 307.403L199.815 379.702C197.134 381.309 192.844 382.38 188.555 382.38C184.266 382.38 179.977 381.309 177.296 379.702L52.9057 307.939C50.7611 306.868 49.6888 305.261 49.6888 304.726C49.6888 304.19 50.7611 302.583 52.9057 301.512L177.296 229.214C180.513 227.607 184.266 226.536 188.555 226.536ZM188.555 221.181C183.73 221.181 178.368 222.252 174.615 224.394L50.2249 296.157C42.7186 300.441 42.7186 307.939 50.2249 312.223L174.615 383.986C178.368 386.128 183.73 387.2 188.555 387.2C193.381 387.2 198.742 386.128 202.495 383.986L327.421 312.223C334.928 307.939 334.928 300.441 327.421 296.157L202.495 224.394C198.742 222.252 193.917 221.181 188.555 221.181Z" fill="white"/>
<path d="M44.3269 430.044C44.3269 433.257 46.4716 435.935 50.2247 438.077L174.615 509.84C178.368 511.982 182.657 513.053 188.555 513.053V387.735C183.193 387.735 178.368 386.664 174.615 384.522L50.2247 312.224C47.0077 310.617 44.3269 307.939 44.3269 304.19V430.044Z" fill="#A5CBFA"/>
<path d="M332.783 430.044C332.783 433.257 330.638 435.935 326.885 438.077L202.495 509.84C198.742 511.982 194.453 513.053 188.555 513.053V387.735C193.917 387.735 198.742 386.664 202.495 384.522L327.421 312.224C330.638 310.617 333.319 307.939 333.319 304.19V430.044H332.783Z" fill="#C8E2FF"/>
<path d="M17.5189 227.607C22.3444 227.607 26.0976 226 33.0677 226.536C38.9655 227.071 42.7186 227.071 48.0803 226.536C53.4419 225.465 67.3821 213.683 79.1777 202.436C92.5818 189.048 104.377 169.768 107.594 159.593C112.956 142.455 120.999 107.645 124.752 95.8628C128.505 84.0808 134.403 81.4031 141.373 80.332C149.951 78.7254 155.313 81.9386 152.096 99.0761C147.807 116.749 139.764 149.953 129.041 171.91C123.679 182.621 114.028 198.687 96.8711 215.825C85.0755 227.607 73.8161 235.105 59.3397 243.673C55.5865 246.351 52.9057 249.029 46.4718 254.384C39.5016 259.74 30.3869 264.559 22.8806 265.631C15.3743 266.702 12.6935 266.166 11.6211 264.56C10.5488 262.953 11.6211 261.346 14.8381 260.275C18.0551 259.204 23.9529 258.669 29.8507 254.384C29.8507 254.384 22.8806 256.526 18.5913 257.597C14.302 258.669 10.0126 258.669 6.79566 258.669C3.04252 258.669 -0.174461 253.313 3.04252 252.778C6.2595 251.706 8.94032 251.706 15.3743 250.635C21.2721 249.029 25.0252 246.887 25.0252 246.887C25.0252 246.887 18.0551 247.958 11.6211 247.958C5.72334 247.958 3.04252 246.887 1.43403 245.815C-0.174461 244.744 -1.24679 241.531 3.04252 240.996C6.79566 240.46 12.1573 241.531 19.1274 238.853C24.4891 237.247 27.706 235.105 26.6337 234.569C25.5614 234.033 22.8806 235.105 18.0551 234.569C13.7658 234.033 9.47648 230.285 10.5488 228.142C12.1573 226 12.6935 227.607 17.5189 227.607Z" fill="#FFA8A7"/>
<path d="M141.909 78.1903C133.33 76.5837 126.36 84.0813 122.071 96.3988C117.782 108.716 112.42 134.958 109.203 144.062C105.986 153.167 104.377 160.664 104.377 160.664C104.377 160.664 118.854 172.982 134.403 169.768C134.403 169.768 144.59 142.456 149.415 119.427C154.777 95.8633 156.921 81.4036 141.909 78.1903Z" fill="#E4F2F2"/>
<path d="M118.854 164.948C110.275 162.27 105.45 156.379 105.45 156.379L105.986 153.166C105.986 153.166 104.377 153.166 101.697 160.128C99.0158 167.09 98.4797 171.91 99.552 173.517C105.986 183.157 125.824 187.441 129.577 182.085C132.258 178.337 138.692 168.161 136.547 163.877L135.475 167.09C135.475 167.09 129.577 168.161 118.854 164.948Z" fill="#F5FBFB"/>
<path d="M68.9908 451.465C68.9908 451.465 69.527 456.285 70.5993 460.034C71.6716 463.783 72.7439 470.209 71.6716 473.423C71.1354 476.636 62.0207 480.92 57.1952 481.456C52.3697 481.991 44.3273 487.347 41.6465 491.096C37.3571 496.451 26.6339 500.2 19.6637 499.129C12.6936 498.593 4.65117 496.451 3.04268 493.773C1.43419 491.096 3.57884 487.882 18.0553 477.171C32.5317 466.996 42.1826 460.569 47.0081 450.93L68.9908 451.465Z" fill="#2D2979"/>
<path d="M122.071 550.541C118.318 555.896 111.884 558.574 105.986 559.11C102.769 559.645 99.0161 559.645 95.7991 559.645C92.046 559.645 86.6844 557.503 87.2205 553.219C87.2205 551.612 88.2928 550.541 88.829 549.47C94.7268 541.972 100.625 535.01 105.986 526.977C111.884 518.408 117.782 509.839 119.926 496.986H141.909C141.909 498.593 142.445 501.271 142.982 503.948C143.518 506.626 144.054 508.768 144.59 510.91C145.662 515.73 146.198 520.55 144.054 525.37C142.445 528.583 138.692 530.726 135.475 532.868C129.577 537.688 126.36 544.114 122.071 550.541Z" fill="#2D2979"/>
<path d="M225.551 260.811C233.593 310.617 207.857 325.076 183.73 343.285C163.892 358.28 144.59 369.527 144.59 369.527C144.59 369.527 146.735 381.309 147.271 405.408C147.271 426.83 141.909 496.986 141.909 496.986C141.909 496.986 130.114 502.877 119.926 496.986C119.926 496.986 112.42 443.967 109.203 417.19C104.378 379.167 100.088 362.029 102.233 353.996C103.841 347.034 135.475 312.223 142.981 300.441L72.744 341.143C72.744 341.143 74.8887 358.816 74.8887 372.204C74.3525 401.124 69.527 452.001 69.527 452.001C69.527 452.001 57.7314 460.569 48.0805 452.001C48.0805 452.001 26.0978 333.11 26.0978 322.934C26.0978 306.868 90.4374 267.238 104.378 257.598C116.173 250.1 129.041 239.925 129.041 239.925L225.551 260.811Z" fill="#7FA8E6"/>
<path d="M142.445 300.442C142.445 300.442 131.186 291.873 126.36 277.413C126.36 277.413 126.896 287.053 129.041 294.551C131.186 302.048 72.2076 340.607 72.2076 340.607L142.445 300.442Z" fill="#597BC6"/>
<path d="M196.598 71.2285C196.598 71.2285 195.525 94.7925 196.061 96.9347C196.598 99.0769 206.785 106.039 210.002 108.181C213.219 110.859 193.917 129.603 184.266 133.887C174.615 138.172 145.126 126.925 144.59 112.465C144.054 98.0058 149.951 85.6882 154.241 85.1527C158.53 84.6171 196.598 71.2285 196.598 71.2285Z" fill="#FFA8A7"/>
<path d="M162.819 98.5399C159.602 95.8622 166.572 86.758 168.717 82.4736C178.368 79.7959 196.597 71.7627 196.597 71.7627C196.597 71.7627 196.597 77.1181 196.061 80.867C196.061 85.1513 193.38 89.9712 189.627 92.6489C186.946 94.7911 183.729 96.9333 178.904 98.5399C175.687 99.611 167.645 102.824 162.819 98.5399Z" fill="#F28F8F"/>
<path d="M199.278 99.0759C199.278 99.0759 182.121 124.782 157.994 126.924C150.487 119.427 149.951 93.1849 160.138 84.6162C160.138 84.6162 150.487 77.1186 144.053 78.1897C144.053 78.1897 133.866 83.5451 129.041 96.9338C124.752 110.322 119.926 126.389 120.462 151.559C120.998 179.408 123.679 253.848 123.143 240.995C123.143 240.995 119.926 254.384 141.909 266.166C163.355 277.948 183.73 283.839 198.206 280.09C210.538 277.412 223.406 269.915 225.014 260.275C223.942 242.602 220.189 213.683 222.869 191.19C225.55 169.232 225.55 151.024 226.623 132.815C227.695 115.142 224.478 115.142 215.363 108.716C204.104 101.218 199.278 99.0759 199.278 99.0759Z" fill="#F5FBFB"/>
<path d="M158.53 126.925C158.53 126.925 156.385 115.678 156.385 109.252C156.921 101.218 162.819 90.5076 162.819 90.5076V84.0811C162.819 84.0811 157.994 84.6166 154.24 89.972C149.951 94.792 144.053 105.503 145.662 116.214C145.662 115.678 148.343 121.569 158.53 126.925Z" fill="#E4F2F2"/>
<path d="M158.53 126.924C156.921 123.711 153.704 112.465 152.096 110.323C148.879 109.251 146.198 115.678 146.198 115.678C146.198 115.678 146.198 122.105 150.487 125.853C153.704 129.602 158.53 126.924 158.53 126.924Z" fill="#F5FBFB"/>
<path d="M151.56 110.323C153.168 111.929 156.385 123.176 157.994 126.924C157.994 126.924 156.385 123.711 154.241 121.569C152.632 119.427 150.487 115.142 145.126 115.678C145.662 115.678 148.343 109.251 151.56 110.323Z" fill="#C8DBDA"/>
<path d="M206.785 19.8154C206.785 19.8154 208.93 12.8534 199.815 5.35573C188.555 -3.21299 173.007 -1.07081 156.922 5.35573C146.198 9.64009 130.114 4.28464 133.331 16.6022C138.156 34.2752 171.934 35.8818 186.947 23.5643C187.483 23.0287 198.206 18.2088 206.785 19.8154Z" fill="#543354"/>
<path d="M196.061 90.507C195.525 94.2558 176.223 108.18 171.934 110.322C167.109 111.929 158.53 126.924 158.53 126.924C165.5 125.853 170.862 128.531 176.223 133.886C176.223 133.886 203.568 122.64 207.857 103.896C207.857 103.896 203.031 94.2558 201.959 91.5781C201.423 88.9004 199.278 86.2227 196.061 86.2227V90.507Z" fill="#E4F2F2"/>
<path d="M175.687 133.886C175.687 133.886 173.542 119.962 170.862 118.356C168.181 117.284 158.53 126.924 158.53 126.924C162.283 130.138 167.109 133.351 175.687 133.886Z" fill="#F5FBFB"/>
<path d="M170.862 118.356C173.543 119.427 175.687 133.887 175.687 133.887C175.687 133.887 168.181 126.925 165.5 126.39C163.356 125.854 157.994 127.461 157.994 127.461C157.994 127.461 167.645 117.285 170.862 118.356Z" fill="#C8DBDA"/>
<path d="M142.981 36.4173C145.662 18.2088 159.066 4.28464 177.832 5.35573C198.206 6.42682 213.219 23.5643 212.147 43.915C211.61 55.697 205.176 65.8723 196.062 71.7633C196.062 71.7633 194.453 78.1898 193.381 79.7965C186.947 87.8297 166.573 92.6496 160.675 91.5785C153.169 90.5074 149.415 87.2941 145.662 79.2609C139.764 64.2657 141.909 44.9861 142.981 36.4173Z" fill="#FFA8A7"/>
<path d="M146.198 21.4208C154.24 9.63881 168.181 2.67673 183.729 5.89C199.278 9.10327 211.074 22.4919 212.682 38.0227C213.755 51.9469 207.321 64.2644 197.134 71.2265C197.67 70.1554 207.321 55.6957 197.134 52.4824C195.525 54.0891 194.989 57.3023 194.989 59.98C194.989 59.98 190.163 59.4445 191.236 54.0891C191.772 52.4824 191.772 50.8758 192.308 49.8047C193.38 45.5203 192.308 40.7004 189.627 36.9516C187.483 33.7383 185.874 29.9895 186.946 25.1696C186.946 25.1696 174.615 30.5251 159.066 27.3118C152.096 25.7052 147.806 23.563 146.198 21.4208Z" fill="#543354"/>
<path d="M211.61 313.293C215.363 310.616 217.508 306.867 223.406 303.118C228.231 299.905 230.376 298.298 233.057 294.014C236.274 289.194 240.027 272.592 241.636 256.526C243.78 237.782 239.491 213.682 236.274 204.042C229.84 183.692 215.9 156.379 211.61 144.597C207.321 132.815 210.002 127.459 214.827 122.104C220.189 115.677 229.84 115.677 238.419 131.744C246.997 147.274 258.793 176.729 264.154 200.293C266.835 211.54 269.516 230.284 267.371 254.383C265.763 270.985 261.474 283.838 256.112 299.905C254.503 304.189 254.503 307.938 252.895 316.507C251.286 325.075 246.997 334.715 241.636 340.071C236.81 345.426 234.129 346.497 232.521 345.962C230.376 345.426 230.376 343.284 232.521 340.606C234.665 337.928 238.419 333.644 240.563 326.682C240.563 326.682 236.274 333.109 233.593 336.322C230.912 340.071 227.695 342.748 225.014 344.891C221.797 347.033 216.436 345.426 218.58 342.213C220.725 339.535 222.87 337.928 226.623 332.573C230.376 327.753 231.985 323.469 231.985 323.469C231.985 323.469 227.159 328.824 222.334 332.573C217.508 336.322 214.827 336.857 213.219 337.393C211.61 337.929 208.393 335.786 211.61 332.573C214.291 329.895 218.58 327.218 222.87 320.791C226.087 316.507 227.159 312.758 226.087 312.758C225.014 312.758 223.406 315.436 219.117 318.113C215.363 320.256 210.002 320.256 208.93 318.113C207.321 315.436 207.857 315.971 211.61 313.293Z" fill="#FFA8A7"/>
<path d="M215.363 117.285C207.857 121.034 206.249 131.209 210.002 143.527C213.755 155.844 225.014 179.944 227.695 189.584C230.376 199.223 233.593 205.65 233.593 205.65C233.593 205.65 252.359 207.257 263.082 194.939C263.082 194.939 255.039 166.555 245.389 145.133C236.274 123.712 229.304 110.858 215.363 117.285Z" fill="#E4F2F2"/>
<path d="M248.069 200.295C239.491 202.973 231.984 201.366 231.984 201.366L230.912 198.689C230.912 198.689 229.84 199.76 231.448 206.722C233.593 214.219 235.738 217.968 237.882 218.504C248.605 222.253 267.371 214.219 267.371 207.793C267.371 203.509 266.299 191.191 262.01 189.049L263.082 192.262C263.082 192.262 258.793 197.082 248.069 200.295Z" fill="#F5FBFB"/>
<path d="M196.597 71.228C196.597 71.228 197.67 73.3702 200.887 73.3702C207.321 73.9057 215.363 61.5882 210.002 53.0195C206.785 47.664 199.278 49.8062 196.597 52.4839V71.228Z" fill="#FFA8A7"/>
<path d="M33.0675 287.053L89.9008 254.385C90.9732 253.85 92.0455 253.85 93.1178 254.385L192.308 311.688L133.866 345.428L33.0675 287.053Z" fill="#EFF6FE"/>
<path d="M134.403 340.608L164.964 322.935L75.9609 271.522L45.3995 289.195L134.403 340.608Z" fill="#AAD1FC"/>
<path d="M149.415 291.873H148.879L133.867 300.977L107.595 285.446L107.058 284.911L122.607 276.342L149.415 291.873Z" fill="#AEB5B7"/>
<path d="M148.879 291.873L133.866 300.977L107.594 285.447L122.607 276.878L148.879 291.873Z" fill="#AAD1FC"/>
<path d="M192.308 311.688V312.759C192.308 314.902 191.236 316.508 189.627 317.579L137.083 348.105C136.011 348.641 135.475 348.641 134.402 348.641C133.33 348.641 132.258 348.641 131.722 348.105L35.7483 293.48C34.1398 292.409 33.0675 290.802 33.0675 288.66V287.589L133.866 345.963L192.308 311.688Z" fill="#C8E2FF"/>
<path d="M133.866 345.428V349.177C132.794 349.177 131.722 349.177 131.185 348.641L35.7483 293.48C34.1398 292.409 33.0675 290.802 33.0675 288.66V287.589L133.866 345.428Z" fill="#AAD1FC"/>
<path d="M132.794 346.499C131.186 347.035 129.041 347.035 127.433 345.964L31.9954 291.338C30.3869 290.267 29.3146 288.66 28.7784 287.054L18.5913 224.395C18.5913 223.859 18.5913 223.859 18.5913 223.324C18.5913 221.717 19.1275 220.111 20.736 218.504L119.39 275.272C120.462 275.807 121.535 277.414 121.535 278.485L132.794 346.499Z" fill="#EFF6FE"/>
<path d="M133.867 345.427L133.33 345.963C132.794 345.963 132.794 346.499 132.258 346.499L120.999 279.555C120.999 277.949 119.926 276.878 118.854 276.342L20.2 219.039C20.7361 218.503 21.2723 218.503 21.2723 217.968L120.463 275.271C121.535 275.807 122.607 277.413 122.607 278.484L133.867 345.427Z" fill="#C8E2FF"/>
<path d="M79.1777 289.195C78.6416 284.911 74.3523 279.556 69.5268 276.878C64.7013 274.2 62.0205 275.271 62.5567 279.556C63.0928 283.84 67.3821 289.195 72.2076 291.873C76.4969 294.551 79.7139 293.48 79.1777 289.195Z" fill="#AAD1FC"/>
</svg>
