<svg width="1619" height="565" viewBox="0 0 1619 565" fill="none" xmlns="http://www.w3.org/2000/svg">
<path d="M164.084 0.324463L305.339 81.878V244.985L164.084 326.539L22.8293 244.985V81.878L164.084 0.324463Z" fill="#283183"/>
<path d="M594.687 0.324463L735.942 81.878V244.985L594.687 326.539L453.432 244.985V81.878L594.687 0.324463Z" fill="#283183"/>
<path d="M1025.29 0.324463L1166.55 81.878V244.985L1025.29 326.539L884.035 244.985V81.878L1025.29 0.324463Z" fill="#283183"/>
<path d="M1455.89 0.324463L1597.15 81.878V244.985L1455.89 326.539L1314.64 244.985V81.878L1455.89 0.324463Z" fill="#283183"/>
<path d="M139.618 217.518L111.89 201.533V169.532L139.618 153.547L167.346 169.532V201.533L139.618 217.518ZM118.414 197.749L139.618 210.047L160.822 197.749V173.316L139.618 161.115L118.414 173.316V197.749Z" fill="white"/>
<path d="M263.579 512.481L245.638 501.885V480.67L263.579 470.073L281.521 480.67V501.885L263.579 512.481ZM249.859 499.376L263.579 507.529L277.3 499.376V483.178L263.579 475.09L249.859 483.178V499.376Z" fill="#283183"/>
<path d="M475.619 512.481L457.677 501.885V480.67L475.619 470.073L493.561 480.67V501.885L475.619 512.481ZM461.899 499.376L475.619 507.529L489.339 499.376V483.178L475.619 475.09L461.899 483.178V499.376Z" fill="#283183"/>
<path d="M687.658 512.481L669.716 501.885V480.67L687.658 470.073L705.6 480.67V501.885L687.658 512.481ZM673.938 499.376L687.658 507.529L701.378 499.376V483.178L687.658 475.09L673.938 483.178V499.376Z" fill="#283183"/>
<path d="M899.698 512.481L881.756 501.885V480.67L899.698 470.073L917.639 480.67V501.885L899.698 512.481ZM885.977 499.376L899.698 507.529L913.418 499.376V483.178L899.698 475.09L885.977 483.178V499.376Z" fill="#283183"/>
<path d="M1111.74 512.481L1093.79 501.885V480.67L1111.74 470.073L1129.68 480.67V501.885L1111.74 512.481ZM1098.02 499.376L1111.74 507.529L1125.46 499.376V483.178L1111.74 475.09L1098.02 483.178V499.376Z" fill="#283183"/>
<path d="M1323.78 512.481L1305.83 501.885V480.67L1323.78 470.073L1341.72 480.67V501.885L1323.78 512.481ZM1310.06 499.376L1323.78 507.529L1337.5 499.376V483.178L1323.78 475.09L1310.06 483.178V499.376Z" fill="#283183"/>
<path d="M570.221 217.518L542.493 201.533V169.532L570.221 153.547L597.949 169.532V201.533L570.221 217.518ZM549.017 197.749L570.221 210.047L591.425 197.749V173.316L570.221 161.115L549.017 173.316V197.749Z" fill="white"/>
<path d="M1000.82 217.518L973.096 201.533V169.532L1000.82 153.547L1028.55 169.532V201.533L1000.82 217.518ZM979.62 197.749L1000.82 210.047L1022.03 197.749V173.316L1000.82 161.115L979.62 173.316V197.749Z" fill="white"/>
<path d="M1431.43 217.518L1403.7 201.533V169.532L1431.43 153.547L1459.16 169.532V201.533L1431.43 217.518ZM1410.22 197.749L1431.43 210.047L1452.63 197.749V173.316L1431.43 161.115L1410.22 173.316V197.749Z" fill="white"/>
<path d="M188.55 217.518L160.822 201.533V169.532L188.55 153.547L216.278 169.532V201.533L188.55 217.518ZM167.346 197.749L188.55 210.047L209.754 197.749V173.316L188.55 161.115L167.346 173.316V197.749Z" fill="white"/>
<path d="M292.939 512.481L274.997 501.885V480.67L292.939 470.073L310.88 480.67V501.885L292.939 512.481ZM279.218 499.376L292.939 507.529L306.659 499.376V483.178L292.939 475.09L279.218 483.178V499.376Z" fill="#283183"/>
<path d="M504.978 512.481L487.036 501.885V480.67L504.978 470.073L522.92 480.67V501.885L504.978 512.481ZM491.258 499.376L504.978 507.529L518.698 499.376V483.178L504.978 475.09L491.258 483.178V499.376Z" fill="#283183"/>
<path d="M717.017 512.481L699.076 501.885V480.67L717.017 470.073L734.959 480.67V501.885L717.017 512.481ZM703.297 499.376L717.017 507.529L730.738 499.376V483.178L717.017 475.09L703.297 483.178V499.376Z" fill="#283183"/>
<path d="M929.057 512.481L911.115 501.885V480.67L929.057 470.073L946.998 480.67V501.885L929.057 512.481ZM915.336 499.376L929.057 507.529L942.777 499.376V483.178L929.057 475.09L915.336 483.178V499.376Z" fill="#283183"/>
<path d="M1141.1 512.481L1123.15 501.885V480.67L1141.1 470.073L1159.04 480.67V501.885L1141.1 512.481ZM1127.38 499.376L1141.1 507.529L1154.82 499.376V483.178L1141.1 475.09L1127.38 483.178V499.376Z" fill="#283183"/>
<path d="M1353.14 512.481L1335.19 501.885V480.67L1353.14 470.073L1371.08 480.67V501.885L1353.14 512.481ZM1339.42 499.376L1353.14 507.529L1366.86 499.376V483.178L1353.14 475.09L1339.42 483.178V499.376Z" fill="#283183"/>
<path d="M619.153 217.518L591.425 201.533V169.532L619.153 153.547L646.881 169.532V201.533L619.153 217.518ZM597.949 197.749L619.153 210.047L640.357 197.749V173.316L619.153 161.115L597.949 173.316V197.749Z" fill="white"/>
<path d="M1049.76 217.518L1022.03 201.533V169.532L1049.76 153.547L1077.48 169.532V201.533L1049.76 217.518ZM1028.55 197.749L1049.76 210.047L1070.96 197.749V173.316L1049.76 161.115L1028.55 173.316V197.749Z" fill="white"/>
<path d="M1480.36 217.518L1452.63 201.533V169.532L1480.36 153.547L1508.09 169.532V201.533L1480.36 217.518ZM1459.15 197.749L1480.36 210.047L1501.56 197.749V173.316L1480.36 161.115L1459.15 173.316V197.749Z" fill="white"/>
<path d="M164.084 175.208L136.356 159.223V127.222L164.084 111.237L191.812 127.222V159.223L164.084 175.208ZM142.88 155.439L164.084 167.64L185.288 155.407V131.006L164.084 118.708L142.88 131.006V155.439Z" fill="white"/>
<path d="M278.259 483.122L261.948 473.34V453.757L278.259 443.976L294.57 453.757V473.34L278.259 483.122ZM265.786 471.025L278.259 478.49L290.732 471.005V456.073L278.259 448.547L265.786 456.073V471.025Z" fill="#283183"/>
<path d="M490.298 483.122L473.988 473.34V453.757L490.298 443.976L506.609 453.757V473.34L490.298 483.122ZM477.825 471.025L490.298 478.49L502.771 471.005V456.073L490.298 448.547L477.825 456.073V471.025Z" fill="#283183"/>
<path d="M702.338 483.122L686.027 473.34V453.757L702.338 443.976L718.649 453.757V473.34L702.338 483.122ZM689.865 471.025L702.338 478.49L714.811 471.005V456.073L702.338 448.547L689.865 456.073V471.025Z" fill="#283183"/>
<path d="M914.377 483.122L898.066 473.34V453.757L914.377 443.976L930.688 453.757V473.34L914.377 483.122ZM901.904 471.025L914.377 478.49L926.85 471.005V456.073L914.377 448.547L901.904 456.073V471.025Z" fill="#283183"/>
<path d="M1126.42 483.122L1110.11 473.34V453.757L1126.42 443.976L1142.73 453.757V473.34L1126.42 483.122ZM1113.94 471.025L1126.42 478.49L1138.89 471.005V456.073L1126.42 448.547L1113.94 456.073V471.025Z" fill="#283183"/>
<path d="M1338.46 483.122L1322.15 473.34V453.757L1338.46 443.976L1354.77 453.757V473.34L1338.46 483.122ZM1325.98 471.025L1338.46 478.49L1350.93 471.005V456.073L1338.46 448.547L1325.98 456.073V471.025Z" fill="#283183"/>
<path d="M594.687 175.208L566.959 159.223V127.222L594.687 111.237L622.415 127.222V159.223L594.687 175.208ZM573.483 155.439L594.687 167.64L615.891 155.407V131.006L594.687 118.708L573.483 131.006V155.439Z" fill="white"/>
<path d="M1025.29 175.208L997.562 159.223V127.222L1025.29 111.237L1053.02 127.222V159.223L1025.29 175.208ZM1004.09 155.439L1025.29 167.64L1046.49 155.407V131.006L1025.29 118.708L1004.09 131.006V155.439Z" fill="white"/>
<path d="M1455.89 175.208L1428.16 159.223V127.222L1455.89 111.237L1483.62 127.222V159.223L1455.89 175.208ZM1434.69 155.439L1455.89 167.64L1477.1 155.407V131.006L1455.89 118.708L1434.69 131.006V155.439Z" fill="white"/>
<path d="M421.171 443.211L490.298 403.3L559.426 443.211V523.032L490.298 562.943L421.171 523.032V443.211Z" stroke="#283183" stroke-width="3"/>
<path d="M209.132 443.211L278.259 403.3L347.387 443.211V523.033L278.259 562.943L209.132 523.033V443.211Z" stroke="#283183" stroke-width="3"/>
<path d="M633.211 443.211L702.338 403.3L771.465 443.211V523.032L702.338 562.943L633.211 523.032V443.211Z" stroke="#283183" stroke-width="3"/>
<path d="M845.25 443.211L914.377 403.3L983.505 443.211V523.032L914.377 562.943L845.25 523.032V443.211Z" stroke="#283183" stroke-width="3"/>
<path d="M1057.29 443.211L1126.42 403.3L1195.54 443.211V523.032L1126.42 562.943L1057.29 523.032V443.211Z" stroke="#283183" stroke-width="3"/>
<path d="M1269.33 443.211L1338.46 403.3L1407.58 443.211V523.032L1338.46 562.943L1269.33 523.032V443.211Z" stroke="#283183" stroke-width="3"/>
<line x1="297.278" y1="161.851" x2="470.64" y2="161.851" stroke="#283183" stroke-width="4"/>
<line x1="721.463" y1="161.851" x2="894.826" y2="161.851" stroke="#283183" stroke-width="4"/>
<line x1="1149.34" y1="161.851" x2="1322.7" y2="161.851" stroke="#283183" stroke-width="4"/>
<line x1="278.916" y1="403.394" x2="164.479" y2="325.361" stroke="#283183" stroke-width="3" stroke-linecap="round"/>
<line x1="489.298" y1="403.9" x2="592.587" y2="326.241" stroke="#283183" stroke-width="3" stroke-linecap="round"/>
<line x1="702.906" y1="403.337" x2="595.024" y2="325.371" stroke="#283183" stroke-width="3" stroke-linecap="round"/>
<line x1="558" y1="482.5" x2="634" y2="482.5" stroke="#283183" stroke-width="3"/>
<line x1="348" y1="482.5" x2="422" y2="482.5" stroke="#283183" stroke-width="3"/>
<line x1="772" y1="482.5" x2="846" y2="482.5" stroke="#283183" stroke-width="3"/>
<line x1="983" y1="482.5" x2="1057" y2="482.5" stroke="#283183" stroke-width="3"/>
<line x1="1194" y1="482.5" x2="1270" y2="482.5" stroke="#283183" stroke-width="3"/>
<line x1="1024.93" y1="325.367" x2="914.09" y2="403.363" stroke="#283183" stroke-width="3" stroke-linecap="round"/>
<line x1="1455.47" y1="325.356" x2="1338.08" y2="403.418" stroke="#283183" stroke-width="3" stroke-linecap="round"/>
<line x1="1126.9" y1="403.275" x2="1025.57" y2="325.38" stroke="#283183" stroke-width="3" stroke-linecap="round"/>
</svg>
