<svg width="36" height="28" viewBox="0 0 36 28" fill="none" xmlns="http://www.w3.org/2000/svg">
<path d="M34.7143 11.341H30.375V6.77667C30.375 6.06551 29.8004 5.49096 29.0893 5.49096H16.433L11.7201 0.982924C11.6601 0.926786 11.5812 0.895236 11.4991 0.894531H1.28571C0.574554 0.894531 0 1.46908 0 2.18025V25.966C0 26.6771 0.574554 27.2517 1.28571 27.2517H29.3304C29.8527 27.2517 30.3268 26.9343 30.5237 26.4481L35.9076 13.1088C35.9679 12.9561 36 12.7914 36 12.6267C36 11.9155 35.4254 11.341 34.7143 11.341ZM27.4821 11.341H6.99107C6.46875 11.341 5.99464 11.6584 5.79777 12.1445L2.89286 19.3445V3.78739H10.4665L15.2719 8.38382H27.4821V11.341Z" fill="white"/>
</svg>
