<svg width="36" height="23" viewBox="0 0 36 23" fill="none" xmlns="http://www.w3.org/2000/svg">
<path d="M0 0.251465V22.1086H36V0.251465H0ZM5.14286 2.82289H30.8571C30.8571 3.50488 31.1281 4.15893 31.6103 4.64117C32.0925 5.1234 32.7466 5.39432 33.4286 5.39432V16.9657C32.7466 16.9657 32.0925 17.2367 31.6103 17.7189C31.1281 18.2011 30.8571 18.8552 30.8571 19.5372H5.14286C5.14286 18.8552 4.87194 18.2011 4.3897 17.7189C3.90747 17.2367 3.25341 16.9657 2.57143 16.9657V5.39432C3.25341 5.39432 3.90747 5.1234 4.3897 4.64117C4.87194 4.15893 5.14286 3.50488 5.14286 2.82289ZM18 5.39432C15.1573 5.39432 12.8571 7.98632 12.8571 11.18C12.8571 14.3738 15.1573 16.9657 18 16.9657C20.8427 16.9657 23.1429 14.3738 23.1429 11.18C23.1429 7.98632 20.8427 5.39432 18 5.39432ZM18 7.96575C19.4169 7.96575 20.5714 9.40704 20.5714 11.18C20.5714 12.953 19.4169 14.3943 18 14.3943C16.5831 14.3943 15.4286 12.953 15.4286 11.18C15.4286 9.40704 16.5831 7.96575 18 7.96575ZM8.35714 9.25146C8.1038 9.25155 7.85294 9.30153 7.61891 9.39856C7.38488 9.49559 7.17226 9.63777 6.99317 9.81697C6.81409 9.99618 6.67205 10.2089 6.57518 10.443C6.4783 10.6771 6.42849 10.928 6.42857 11.1813C6.42866 11.4347 6.47864 11.6855 6.57567 11.9196C6.6727 12.1536 6.81488 12.3662 6.99408 12.5453C7.17328 12.7244 7.38601 12.8664 7.6201 12.9633C7.8542 13.0602 8.10508 13.11 8.35843 13.1099C8.87009 13.1097 9.36072 12.9063 9.7224 12.5444C10.0841 12.1825 10.2872 11.6917 10.287 11.18C10.2868 10.6684 10.0834 10.1777 9.72149 9.81606C9.35957 9.45439 8.8688 9.25129 8.35714 9.25146ZM27.6429 9.25146C27.3895 9.25155 27.1387 9.30153 26.9046 9.39856C26.6706 9.49559 26.458 9.63777 26.2789 9.81697C26.0998 9.99618 25.9578 10.2089 25.8609 10.443C25.764 10.6771 25.7142 10.928 25.7143 11.1813C25.7144 11.4347 25.7644 11.6855 25.8614 11.9196C25.9584 12.1536 26.1006 12.3662 26.2798 12.5453C26.459 12.7244 26.6717 12.8664 26.9058 12.9633C27.1399 13.0602 27.3908 13.11 27.6441 13.1099C28.1558 13.1097 28.6464 12.9063 29.0081 12.5444C29.3698 12.1825 29.5729 11.6917 29.5727 11.18C29.5725 10.6684 29.3691 10.1777 29.0072 9.81606C28.6453 9.45439 28.1545 9.25129 27.6429 9.25146Z" fill="white"/>
</svg>
