<svg width="36" height="34" viewBox="0 0 36 34" fill="none" xmlns="http://www.w3.org/2000/svg">
<path d="M31.968 14.2269C31.3992 14.342 30.8203 14.3999 30.24 14.3997C28.9302 14.3996 27.6378 14.1001 26.4614 13.5241C25.7172 15.6705 24.6362 17.6848 23.2589 19.4915C23.5066 19.906 23.6379 20.3796 23.639 20.8624C25.533 21.2544 27.4656 21.4283 29.399 21.3808C29.2059 21.9839 28.9711 22.5728 28.6963 23.1433H28.0512C26.3719 23.1375 24.6999 22.9208 23.0746 22.4982C22.6884 23.0231 22.1217 23.3864 21.4836 23.5183C20.8455 23.6502 20.1811 23.5412 19.6186 23.2125C17.2502 25.1183 14.5002 26.4933 11.5546 27.2445C11.4652 27.7186 11.2502 28.16 10.9321 28.5227C10.614 28.8854 10.2043 29.1561 9.74592 29.3065L9.41184 29.3757C7.92148 28.5517 6.59723 27.4579 5.50656 26.1501H6.26688C6.37705 25.6015 6.65589 25.1011 7.0644 24.7188C7.47292 24.3365 7.99069 24.0914 8.54534 24.0178C9.09998 23.9442 9.66376 24.0457 10.1579 24.3082C10.652 24.5707 11.0517 24.9811 11.3011 25.4819C13.9126 24.7926 16.3525 23.5687 18.4666 21.8877C18.2821 21.4639 18.2106 20.9995 18.2592 20.5398C17.7754 20.2633 17.2915 19.9753 16.8192 19.6643C14.3095 18.0003 12.2037 15.7961 10.656 13.2131C10.1934 13.3401 9.70514 13.3397 9.24278 13.2119C8.78042 13.0842 8.36119 12.8338 8.02944 12.4873C5.88663 14.057 3.95123 15.8918 2.26944 17.9478V17.2912C2.27502 16.6238 2.32892 15.9578 2.43072 15.2982C3.81255 13.6024 5.44396 12.1264 7.26912 10.9206C7.20432 10.4121 7.28978 9.89564 7.51496 9.43505C7.74013 8.97447 8.09518 8.58985 8.53632 8.32862C8.39808 7.83326 8.25984 7.3379 8.15616 6.83102C8.15616 6.66974 8.15616 6.49694 8.02944 6.09374C8.5323 5.72443 9.05959 5.38959 9.60768 5.0915C9.72288 5.77118 9.76896 6.1283 9.8496 6.48542C9.93024 6.84254 10.08 7.46462 10.2182 7.94846H10.5062C11 8.06265 11.4513 8.31427 11.808 8.67422C15.0034 7.55595 18.4187 7.21245 21.7728 7.67198C21.3675 5.9038 21.5328 4.05265 22.2451 2.3843C19.7978 1.38112 17.1414 0.995213 14.5098 1.26059C11.8782 1.52596 9.35229 2.43447 7.15456 3.90607C4.95684 5.37768 3.15476 7.3672 1.90711 9.69936C0.659453 12.0315 0.00451642 14.6347 0 17.2797C0 17.7981 -7.72476e-08 18.3049 0.0806399 18.8118C0.2885 20.9853 0.935496 23.0938 1.98242 25.0098C3.02934 26.9258 4.45438 28.6092 6.17119 29.9582C7.88799 31.3071 9.86081 32.2934 11.9701 32.8572C14.0794 33.4211 16.2812 33.5509 18.4421 33.2386C20.603 32.9263 22.678 32.1785 24.5413 31.0406C26.4046 29.9026 28.0175 28.3982 29.2822 26.6184C30.5469 24.8387 31.437 22.8206 31.8987 20.6867C32.3604 18.5527 32.384 16.3472 31.968 14.2038V14.2269Z" fill="white"/>
<path d="M12.6374 10.2186C12.6951 10.5774 12.6768 10.9444 12.5835 11.2957C12.4902 11.647 12.3241 11.9747 12.0959 12.2576C13.5077 14.6707 15.4498 16.731 17.7753 18.2826C18.167 18.5475 18.5702 18.7779 18.9273 19.0083C19.2932 18.6038 19.776 18.3233 20.3086 18.2056C20.8412 18.0879 21.3972 18.139 21.8995 18.3517C23.2154 16.6125 24.2317 14.6657 24.9062 12.5917C23.8506 11.7721 22.999 10.7193 22.4179 9.51586C19.1509 8.91693 15.7852 9.15874 12.6374 10.2186Z" fill="white"/>
<path d="M30.24 11.52C33.4211 11.52 36 8.94116 36 5.76C36 2.57884 33.4211 0 30.24 0C27.0588 0 24.48 2.57884 24.48 5.76C24.48 8.94116 27.0588 11.52 30.24 11.52Z" fill="white"/>
</svg>
