<svg width="36" height="38" viewBox="0 0 36 38" fill="none" xmlns="http://www.w3.org/2000/svg">
<path d="M31.2632 1.89474C30.0072 1.89574 28.8029 2.39512 27.9148 3.28324C27.0267 4.17135 26.5273 5.3756 26.5263 6.63158C26.5263 7.308 26.6741 7.95032 26.9318 8.53579L23.2276 12.7023C21.9692 11.8337 20.4764 11.3685 18.9474 11.3684C17.5453 11.3684 16.2493 11.7777 15.1219 12.4408L10.8133 8.13411L10.7697 8.17769C11.1411 7.42358 11.3684 6.58421 11.3684 5.68421C11.3684 4.55998 11.035 3.461 10.4105 2.52623C9.78587 1.59147 8.89812 0.862912 7.85947 0.432687C6.82081 0.00246289 5.67791 -0.110103 4.57528 0.109223C3.47265 0.32855 2.45982 0.869918 1.66487 1.66487C0.869918 2.45982 0.32855 3.47265 0.109223 4.57528C-0.110103 5.67791 0.00246289 6.82081 0.432687 7.85947C0.862912 8.89812 1.59147 9.78587 2.52623 10.4105C3.461 11.035 4.55998 11.3684 5.68421 11.3684C6.58421 11.3684 7.42169 11.1411 8.17769 10.7697L8.13411 10.8133L12.4427 15.12C11.7467 16.2758 11.3755 17.5981 11.3684 18.9474C11.3684 20.8364 12.0884 22.5455 13.2347 23.8756L8.352 28.7564C7.80474 28.5374 7.22105 28.4236 6.63158 28.4211C4.02063 28.4211 1.89474 30.5451 1.89474 33.1579C1.89474 35.7707 4.02063 37.8947 6.63158 37.8947C9.24253 37.8947 11.3684 35.7707 11.3684 33.1579C11.3684 32.5497 11.2434 31.9718 11.0331 31.4356L16.4103 26.0583C17.208 26.3425 18.0531 26.5263 18.9474 26.5263C23.1272 26.5263 26.5263 23.1272 26.5263 18.9474C26.5263 17.7423 26.2175 16.6187 25.7154 15.6051L29.7265 11.0899C30.2116 11.2566 30.7232 11.3684 31.2632 11.3684C33.876 11.3684 36 9.24442 36 6.63158C36 4.01874 33.876 1.89474 31.2632 1.89474ZM18.9474 22.7368C16.8575 22.7368 15.1579 21.0373 15.1579 18.9474C15.1579 16.8575 16.8575 15.1579 18.9474 15.1579C21.0373 15.1579 22.7368 16.8575 22.7368 18.9474C22.7368 21.0373 21.0373 22.7368 18.9474 22.7368Z" fill="white"/>
</svg>
